<?xml version="1.0" encoding="UTF-8"?>
<svg width="24px" height="23px" viewBox="0 0 24 23" version="1.1" xmlns="http://www.w3.org/2000/svg" xmlns:xlink="http://www.w3.org/1999/xlink">
    <!-- Generator: Sketch 43.1 (39012) - http://www.bohemiancoding.com/sketch -->
    <title>Group</title>
    <desc>Created with Sketch.</desc>
    <defs></defs>
    <g id="Kit-index" stroke="none" stroke-width="1" fill="none" fill-rule="evenodd" stroke-linecap="round">
        <g id="Desktop-Copy-2" transform="translate(-106.000000, -324.000000)" stroke="#26B0F6" stroke-width="2">
            <g id="Group" transform="translate(107.000000, 324.000000)">
                <path d="M8.91891892,13.6653218 C8.91891892,13.6653218 11.6772254,16.9426644 15.1745405,13.4636392 C18.6718556,9.98461391 21.4553724,6.44923615 21.4553724,6.44923615 C21.4553724,6.44923615 21.8439081,3.9810956 19.9106219,2.17287247 C17.9773358,0.364649333 14.8601529,1.18620943 14.8601529,1.18620943 L10.1314863,6.23667848" id="Path-2" transform="translate(15.203114, 8.031975) rotate(6.000000) translate(-15.203114, -8.031975) "></path>
                <path d="M13.5683909,9.53376372 C13.5683909,9.53376372 10.8100844,6.25642108 7.31276931,9.73544635 C3.8154542,13.2144716 1.03193739,16.7498494 1.03193739,16.7498494 C1.03193739,16.7498494 0.643401749,19.2179899 2.57668788,21.0262131 C4.50997402,22.8344362 7.62715693,22.0128761 7.62715693,22.0128761 L14.5585937,15.1671103" id="Path-2-Copy" transform="translate(7.779297, 15.167110) rotate(7.000000) translate(-7.779297, -15.167110) "></path>
            </g>
        </g>
    </g>
</svg>