<?xml version="1.0" encoding="UTF-8"?>
<svg width="116px" height="43px" viewBox="0 0 116 43" version="1.1" xmlns="http://www.w3.org/2000/svg" xmlns:xlink="http://www.w3.org/1999/xlink">
    <!-- Generator: Sketch 43.1 (39012) - http://www.bohemiancoding.com/sketch -->
    <title>Page 1</title>
    <desc>Created with Sketch.</desc>
    <defs></defs>
    <g id="Welcome" stroke="none" stroke-width="1" fill="none" fill-rule="evenodd">
        <g id="Desktop-Copy-2" transform="translate(-872.000000, -409.000000)">
            <g id="Page-1" transform="translate(872.000000, 409.000000)">
                <path d="M110.6299,34.586 C105.6539,30.114 102.3599,29.66 97.0439,29.367 C97.0439,29.367 97.4359,18.538 87.0039,8.099 C76.5669,-2.336 60.8119,1.011 60.8119,1.011 C60.8119,1.011 44.9939,4.489 41.0569,17.617 C41.0569,17.617 34.8759,9.716 19.6609,13.035 C10.4939,15.035 5.1609,22.868 5.1609,22.868 C5.1609,22.868 0.4479,28.635 0.4999,41.565 L114.6149,41.565 C114.0479,39.064 112.8639,36.594 110.6299,34.586" id="Fill-1" fill="#FFFFFF"></path>
                <path d="M110.6299,34.586 C105.6539,30.114 102.3599,29.66 97.0439,29.367 C97.0439,29.367 97.4359,18.538 87.0039,8.099 C76.5669,-2.336 60.8119,1.011 60.8119,1.011 C60.8119,1.011 44.9939,4.489 41.0569,17.617 C41.0569,17.617 34.8759,9.716 19.6609,13.035 C10.4939,15.035 5.1609,22.868 5.1609,22.868 C5.1609,22.868 0.4479,28.635 0.4999,41.565 L114.6149,41.565 C114.0479,39.064 112.8639,36.594 110.6299,34.586 Z" id="Stroke-3" stroke="#F4F4F4"></path>
            </g>
        </g>
    </g>
</svg>