<?xml version="1.0" encoding="UTF-8"?>
<svg width="155px" height="67px" viewBox="0 0 155 67" version="1.1" xmlns="http://www.w3.org/2000/svg" xmlns:xlink="http://www.w3.org/1999/xlink">
    <!-- Generator: Sketch 43.1 (39012) - http://www.bohemiancoding.com/sketch -->
    <title>Page 1</title>
    <desc>Created with Sketch.</desc>
    <defs></defs>
    <g id="Welcome" stroke="none" stroke-width="1" fill="none" fill-rule="evenodd">
        <g id="Desktop-Copy-2" transform="translate(-795.000000, -151.000000)">
            <g id="Page-1" transform="translate(795.000000, 151.000000)">
                <path d="M0.5049,65.7334 L154.4349,65.7334 C154.4349,65.7334 154.5079,38.5044 126.6339,43.3134 C126.6339,43.3134 117.4799,12.1074 85.8049,4.3284 C85.8049,4.3284 65.7989,-4.2846 44.1269,4.3284 C22.4539,12.9404 14.9519,23.7774 14.9519,23.7774 C14.9519,23.7774 0.7839,36.8374 0.5049,65.7334" id="Fill-1" fill="#FFFFFF"></path>
                <path d="M0.5049,65.7334 L154.4349,65.7334 C154.4349,65.7334 154.5079,38.5044 126.6339,43.3134 C126.6339,43.3134 117.4799,12.1074 85.8049,4.3284 C85.8049,4.3284 65.7989,-4.2846 44.1269,4.3284 C22.4539,12.9404 14.9519,23.7774 14.9519,23.7774 C14.9519,23.7774 0.7839,36.8374 0.5049,65.7334 Z" id="Stroke-3" stroke="#F4F4F4"></path>
            </g>
        </g>
    </g>
</svg>