<?xml version="1.0" encoding="UTF-8"?>
<svg width="991px" height="148px" viewBox="0 0 991 148" version="1.1" xmlns="http://www.w3.org/2000/svg" xmlns:xlink="http://www.w3.org/1999/xlink">
    <!-- Generator: Sketch 43.1 (39012) - http://www.bohemiancoding.com/sketch -->
    <title>Group 2</title>
    <desc>Created with Sketch.</desc>
    <defs></defs>
    <g id="Welcome" stroke="none" stroke-width="1" fill="none" fill-rule="evenodd">
        <g id="Desktop-Copy-10" transform="translate(-15.000000, -252.000000)">
            <g id="Group-2" transform="translate(16.000000, 253.000000)">
                <g id="Group" transform="translate(87.981018, 63.821637)" stroke="#6ABAE3" stroke-width="2" stroke-linecap="square">
                    <path d="M5.12510785,0.239480816 L5.12510785,17.9610612" id="Line"></path>
                    <path d="M5.13607116,15.0872914 L9.7730735,19.2164645" id="Line-Copy-2" transform="translate(7.565635, 17.242619) scale(-1, 1) translate(-7.565635, -17.242619) "></path>
                    <path d="M0.255016062,15.0872914 L4.8920184,19.2164645" id="Line-Copy-3"></path>
                </g>
                <rect id="Rectangle-9" fill="#FFFFFF" x="50.3968939" y="40.9824561" width="874.685073" height="81.9649123"></rect>
                <ellipse id="Oval" fill="#FFFFFF" cx="852.903365" cy="77.6959064" rx="137.096635" ry="66.5964912"></ellipse>
                <ellipse id="Oval-Copy" stroke="#EFEFEF" fill="#FFFFFF" cx="673.951682" cy="65.7426901" rx="99.9396031" ry="58.0584795"></ellipse>
                <ellipse id="Oval-Copy-2" stroke="#EFEFEF" fill="#FFFFFF" cx="510.802416" cy="70.8654971" rx="86.2726488" ry="58.0584795"></ellipse>
                <ellipse id="Oval-Copy-4" stroke="#EFEFEF" fill="#FFFFFF" cx="277.610009" cy="58.0584795" rx="86.2726488" ry="58.0584795"></ellipse>
                <ellipse id="Oval-Copy-3" stroke="#EFEFEF" fill="#FFFFFF" cx="374.132873" cy="67.4502924" rx="86.2726488" ry="58.0584795"></ellipse>
                <ellipse id="Oval-Copy-6" stroke="#EFEFEF" fill="#FFFFFF" cx="137.096635" cy="79.4035088" rx="137.096635" ry="66.5964912"></ellipse>
                <rect id="Rectangle-11" fill="#FFFFFF" x="0" y="58.0584795" width="990" height="81.9649123"></rect>
                <rect id="Rectangle-12" fill="#FFFFFF" x="285.29767" y="17.9298246" width="45.271786" height="48.6666667"></rect>
                <rect id="Rectangle-12-Copy-4" fill="#FFFFFF" x="428.80069" y="40.9824561" width="45.271786" height="48.6666667"></rect>
                <rect id="Rectangle-12-Copy-3" fill="#FFFFFF" x="221.233822" y="24.7602339" width="45.271786" height="48.6666667"></rect>
                <rect id="Rectangle-12-Copy" fill="#FFFFFF" x="574.012079" y="46.9590643" width="45.271786" height="48.6666667"></rect>
                <rect id="Rectangle-12-Copy-2" fill="#FFFFFF" x="755.953408" y="39.2748538" width="45.271786" height="48.6666667"></rect>
            </g>
        </g>
    </g>
</svg>