<?xml version="1.0" encoding="UTF-8"?>
<svg width="70px" height="15px" viewBox="0 0 70 15" version="1.1" xmlns="http://www.w3.org/2000/svg" xmlns:xlink="http://www.w3.org/1999/xlink">
    <!-- Generator: Sketch 43.1 (39012) - http://www.bohemiancoding.com/sketch -->
    <title>logo</title>
    <desc>Created with Sketch.</desc>
    <defs></defs>
    <g id="Page-1" stroke="none" stroke-width="1" fill="none" fill-rule="evenodd">
        <g id="logo" fill="#26B0F6">
            <path d="M4.93059978,2.9284005 C4.93059978,1.21960057 4.07619982,0.507600606 2.61659988,0.507600606 C1.22819994,0.507600606 0.551799975,1.57560056 0.551799975,2.9284005 L0.551799975,11.6504001 C0.551799975,13.3948 1.22819994,14.356 2.97259987,14.356 L7.03099968,14.356 C9.13139959,14.356 9.77219956,13.6084 9.77219956,12.2912001 C9.77219956,11.0452001 8.63299961,10.4756002 7.35139967,10.4756002 C6.06979973,10.4756002 5.78499974,10.3332002 5.53579975,10.1908002 C5.14419977,9.94160018 4.93059978,9.40760021 4.93059978,8.73120024 L4.93059978,2.9284005 Z M10.3773995,2.10960053 C10.3773995,2.9284005 10.5909995,3.07080049 10.5909995,3.74720046 C10.5909995,4.49480043 10.2349995,4.81520041 10.2349995,6.02560036 L10.1993995,11.8640001 C10.1815995,13.8576 11.4453995,14.356 12.4421994,14.356 C13.8305994,14.356 14.5781993,13.288 14.5781993,11.9352001 L14.5781993,6.34600034 C14.5781993,5.77640037 14.5425993,5.27800039 14.3645994,4.56600042 C14.2577994,4.17440044 14.1865994,3.81840046 14.1865994,3.53360047 C14.1865994,2.99960049 14.4001994,2.9284005 14.4001994,2.14520053 C14.4001994,1.00600058 13.5101994,0.187200621 12.3709994,0.187200621 C11.1961995,0.187200621 10.3773995,1.18400058 10.3773995,2.10960053 Z M25.2047989,7.73440028 C25.2047989,5.27800039 24.5283989,3.17760049 21.680399,3.17760049 C20.5411991,3.17760049 20.0427991,3.46240047 19.2595991,3.46240047 C18.1915992,3.46240047 18.3695992,3.39120048 17.6931992,3.39120048 C16.2335993,3.39120048 15.4859993,4.24560044 15.4859993,5.84760037 L15.4859993,11.3300001 C15.4859993,12.8964 15.9131993,14.0356 17.5507992,14.0356 C18.8323992,14.0356 19.6511991,13.0744 19.6511991,11.5792001 L19.6511991,9.26520021 C19.6511991,8.33960025 19.7579991,7.3784003 20.3275991,7.3784003 C20.6123991,7.3784003 21.0395991,7.55640029 21.0395991,9.26520021 L21.0395991,11.5792001 C21.0395991,13.2168 21.858399,14.0356 23.175599,14.0356 C24.3503989,14.0356 25.2047989,13.2524 25.2047989,11.6504001 L25.2047989,7.73440028 Z M30.3845986,2.39440052 C30.3845986,1.21960057 29.5301987,0.294000616 28.2841987,0.294000616 C26.6821988,0.294000616 26.0769988,1.36200057 26.0769988,2.71480051 L26.0769988,11.5436001 C26.0769988,13.0744 26.4685988,14.356 28.2485987,14.356 C29.3165987,14.356 29.8861987,13.7152 30.0997986,13.3592 C30.5269986,12.6116001 30.5269986,12.3980001 30.8829986,12.3980001 C31.2745986,12.3980001 31.7017986,13.0744 32.1645986,13.5372 C32.8409985,14.178 33.3749985,14.356 34.4785985,14.356 C35.6533984,14.356 36.2229984,13.7152 36.2229984,12.7896001 C36.2229984,12.2200001 35.7957984,11.4368001 35.2617984,10.5468002 C34.3005985,8.90920023 34.0869985,8.76680024 34.0869985,8.05480027 C34.0869985,7.55640029 34.3005985,7.3072003 34.7633984,6.70200033 C35.4041984,5.84760037 35.7245984,5.45600038 35.7245984,4.74400042 C35.7245984,3.92520045 34.9057984,3.46240047 33.7309985,3.46240047 C31.9509986,3.46240047 31.8085986,4.31680044 30.8829986,4.31680044 C30.4913986,4.31680044 30.3845986,2.9640005 30.3845986,2.39440052 Z M40.6551982,2.41220052 C40.7263982,2.66140051 40.8331982,3.05300049 41.0111982,3.23100048 C41.2959981,3.51580047 41.5095981,3.51580047 42.6487981,3.51580047 C43.930398,3.51580047 44.535598,3.87180046 44.998398,4.12100044 C45.247598,4.29900044 45.532398,4.51260043 45.8171979,4.76180042 C46.7783979,5.65180038 47.2411979,6.96900032 47.2411979,8.71340024 C47.2411979,12.0598001 45.354398,14.3026 42.6487981,14.3026 C41.8655981,14.3026 40.7975982,14.0178 40.3703982,14.0178 C40.1923982,14.0178 39.9075982,14.0534 39.0175982,14.0534 C37.0951983,14.0534 36.8103983,13.0566 36.8103983,11.0986001 L36.8103983,2.9818005 C36.8103983,1.23740057 37.6291983,0.561000604 38.6971983,0.561000604 C39.9431982,0.561000604 40.2279982,1.09500058 40.6551982,2.41220052 Z M40.7263982,8.78460023 C40.7263982,10.2442002 41.4383981,10.9562001 42.0079981,10.9562001 C42.7911981,10.9562001 43.3607981,10.1018002 43.3607981,8.89140023 C43.3607981,7.89460027 42.9335981,6.86220032 42.0435981,6.86220032 C41.3671981,6.86220032 40.7263982,7.50300029 40.7263982,8.78460023 Z M59.2561973,8.66000024 C59.2561973,11.7216001 57.1913974,14.2848 53.7737976,14.2848 C49.9289978,14.2848 47.8997978,11.8996001 47.8997978,8.69560024 C47.8997978,5.34920039 50.2849977,3.10640049 53.5601976,3.10640049 C56.7285975,3.10640049 59.2561973,5.31360039 59.2561973,8.66000024 Z M52.1005977,8.73120024 C52.1005977,9.79920019 52.7413976,10.6180002 53.5957976,10.6180002 C54.3789976,10.6180002 55.0553975,9.76360019 55.0553975,8.69560024 C55.0553975,7.69880028 54.5569975,6.80880032 53.5601976,6.80880032 C52.7769976,6.80880032 52.1005977,7.52080029 52.1005977,8.73120024 Z M62.0329972,3.26660048 C61.0717973,3.26660048 60.1461973,3.65820046 60.1461973,4.72620042 C60.1461973,5.72300037 61.0717973,6.71980033 61.4633972,7.50300029 C61.6057972,7.78780028 61.7125972,8.17940026 61.7125972,8.49980025 C61.7125972,8.82020023 61.4277972,9.4610002 60.8937973,10.3510002 C60.2173973,11.4546001 59.8969973,11.9886001 59.8969973,12.6294001 C59.8969973,13.4482 60.5021973,14.089 61.7125972,14.089 C62.5669972,14.089 62.9229972,13.8754 63.8485971,13.1634 C64.1333971,12.9498 64.3113971,12.8430001 64.5249971,12.8430001 C64.8453971,12.8430001 65.0945971,13.1278 65.6285971,13.4838 C66.198197,13.8754 66.589797,14.089 67.337397,14.089 C68.5477969,14.089 69.1529969,13.555 69.1529969,12.5226001 C69.1529969,11.4902001 67.337397,9.4966002 67.337397,8.42860025 C67.337397,8.17940026 67.497597,7.68100028 67.728997,7.2894003 C68.8503969,5.43820038 68.9037969,5.33140039 68.9037969,4.51260043 C68.9037969,3.80060046 68.1205969,3.26660048 67.052597,3.26660048 C66.660997,3.26660048 66.269397,3.37340048 65.770997,3.58700047 C65.3437971,3.76500046 65.0233971,4.04980045 64.5961971,4.04980045 C63.9909971,4.04980045 63.7061971,3.71160046 63.2077972,3.51580047 C62.8873972,3.39120048 62.4957972,3.26660048 62.0329972,3.26660048 Z" id="Linkbox"></path>
        </g>
    </g>
</svg>