<?xml version="1.0" encoding="UTF-8"?>
<svg width="600px" height="600px" viewBox="0 0 600 600" version="1.1" xmlns="http://www.w3.org/2000/svg" xmlns:xlink="http://www.w3.org/1999/xlink">
    <!-- Generator: Sketch 43.1 (39012) - http://www.bohemiancoding.com/sketch -->
    <title>Group 4</title>
    <desc>Created with Sketch.</desc>
    <defs></defs>
    <g id="Home" stroke="none" stroke-width="1" fill="none" fill-rule="evenodd">
        <g id="Artboard-Copy-3">
            <g id="Group-4" transform="translate(299.998323, 298.548044) rotate(-23.000000) translate(-299.998323, -298.548044) translate(-96.001677, -97.451956)">
                <rect id="Rectangle-2" fill="#F4F6F6" transform="translate(395.898456, 395.883371) rotate(23.000000) translate(-395.898456, -395.883371) " x="93.6438257" y="94.7258919" width="604.50926" height="602.314959"></rect>
                <path d="M576.202535,473.627164 L580.812305,472.215841" id="Stroke-201" stroke="#3C628F" stroke-width="1.4"></path>
                <polygon id="Fill-81" fill="#FFFFFF" points="364.384518 645.025276 367.351763 649.813505 369.312095 644.538071"></polygon>
                <polygon id="Fill-249" fill="#FFFFFF" points="580.588477 477.504058 573.05027 473.516312 575.381901 469.112608 582.923255 473.102449"></polygon>
                <path d="M578.634123,481.429044 C579.439653,480.308996 580.092048,479.088365 580.746541,477.86459 C580.020725,477.563885 579.290714,477.266323 578.594266,476.906944 C576.271026,475.700981 574.107213,474.254034 571.898299,472.854237 L570.470791,475.529149 C570.470791,475.529149 569.516322,482.382499 572.339872,484.664504 C574.543542,484.033757 577.231788,483.376816 578.634123,481.429044" id="Fill-261" fill="#FFFFFF"></path>
                <polygon id="Fill-279" fill="#FFFFFF" points="580.434818 477.423276 572.894513 473.434482 575.227193 469.031826 582.768547 473.022716"></polygon>
                <path d="M578.47952,481.348262 C579.287148,480.227167 579.937445,479.005487 580.591938,477.781712 C579.864024,477.481007 579.13716,477.185541 578.436516,476.823019 C576.115374,475.620199 573.954708,474.1743 571.745794,472.773455 L570.318286,475.448367 C570.318286,475.448367 569.361719,482.300669 572.186318,484.582674 C574.386841,483.952975 577.077185,483.292891 578.47952,481.348262" id="Fill-291" fill="#FFFFFF"></path>
                <path d="M361.690207,641.916385 C362.217787,643.001857 362.315331,643.311992 362.92787,644.139716 C362.988704,644.223537 364.013447,645.208424 363.38098,644.718076 C363.451254,644.774654 363.506844,644.816565 363.552994,644.858475 C363.619073,644.864761 363.737595,644.898289 363.941075,644.97268 C364.269371,645.093171 364.568298,645.256621 364.843101,645.45255 L368.531966,635.531381 L368.490011,635.109137 C368.236186,635.167811 367.97292,635.203435 367.701264,635.201339 C365.365437,635.183527 363.061076,635.509379 360.747275,635.759791 C360.032997,635.976676 359.352282,636.253283 358.727157,636.603232 C359.986847,638.182195 360.812305,640.117394 361.690207,641.916385" id="Fill-67" fill="#FFFFFF"></path>
                <path d="M364.297546,644.164919 C364.297546,644.164919 364.095115,644.900385 364.297546,644.973727 C364.625841,645.094219 366.962911,645.540476 367.237714,645.733262 L371.083412,635.760839 L368.847531,635.109137 C368.592656,635.167811 368.331488,635.203435 368.057734,635.201339 C365.722956,635.184575 363.418595,635.508331 361.103746,635.760839 C360.389467,635.977724 360.295175,636.265516 359.670051,636.61337 C360.928691,638.193381 361.959362,640.1205 362.835166,641.925778" id="Fill-97" fill="#F4DBB3"></path>
                <polygon id="Fill-123" fill="#3C628F" transform="translate(367.520155, 647.036776) rotate(-6.000000) translate(-367.520155, -647.036776) " points="367.257049 649.342985 369.482586 644.785091 365.557725 644.730567"></polygon>
                <path d="M574.416209,467.510489 L579.022833,466.094976" id="Stroke-203" stroke="#3C628F" stroke-width="1.4"></path>
                <polygon id="Fill-309" fill="#FFFFFF" points="580.64071 477.531719 573.098308 473.543972 575.432037 469.138173 582.97444 473.128015"></polygon>
                <path d="M578.684364,481.453561 C579.490942,480.335609 580.143338,479.114978 580.795733,477.888059 C580.069917,477.58945 579.337808,477.292936 578.642409,476.930413 C576.321266,475.727594 574.158503,474.280647 571.952735,472.882945 L570.518934,475.553667 C570.518934,475.553667 569.56866,482.407016 572.391162,484.692164 C574.591685,484.061417 577.282028,483.403429 578.684364,481.453561" id="Fill-321" fill="#FFFFFF"></path>
                <path d="M533.716977,635.405222 L489.124396,631.997764 L488.846447,635.243435 L570.870994,641.510458 L571.913836,637.745061 C571.913836,637.745061 535.891279,636.268749 533.716977,635.405222 Z" id="Fill-19" fill="#DEDEEB"></path>
                <path d="M551.750077,613.139896 L542.591371,625.001503" id="Stroke-45" stroke="#3C628F" stroke-width="1.4" stroke-linecap="round"></path>
                <path d="M540.705584,620.46683 L545.843983,613.139896" id="Stroke-47" stroke="#3C628F" stroke-width="1.4" stroke-linecap="round"></path>
                <path d="M532.771888,453.367925 L568.985071,459.524519" id="Stroke-141" stroke="#DEDEEB" stroke-width="1.4" stroke-linecap="round"></path>
                <path d="M530.087208,469.135344 L566.297244,475.292986" id="Stroke-143" stroke="#DEDEEB" stroke-width="1.4"></path>
                <polyline id="Stroke-149" stroke="#DEDEEB" stroke-width="1.4" stroke-linecap="round" points="511.13995 468.80174 514.221522 473.143626 522.061803 465.145083"></polyline>
                <path d="M572.628835,461.387738 L577.236508,459.975367" id="Stroke-205" stroke="#3C628F" stroke-width="1.4"></path>
                <polygon id="Fill-339" fill="#DEDEEB" points="580.48401 477.448841 572.943705 473.462143 575.276385 469.057391 582.817739 473.045137"></polygon>
                <path d="M578.527663,481.373827 C579.337388,480.252732 579.989784,479.0321 580.64113,477.80623 C579.917412,477.509716 579.184254,477.212154 578.486757,476.849632 C576.162468,475.645764 574.004948,474.199866 571.796034,472.800068 L570.364331,475.472885 C570.364331,475.472885 569.414057,482.326234 572.23551,484.60824 C574.437082,483.980636 577.125328,483.320552 578.527663,481.373827" id="Fill-351" fill="#FA8383"></path>
                <path d="M580.48401,477.448841 L568.767116,471.150801" id="Stroke-357" stroke="#3C628F" stroke-width="1.4"></path>
                <path d="M582.53465,472.893528 L570.81461,466.593391" id="Stroke-359" stroke="#3C628F" stroke-width="1.4"></path>
                <path d="M488.78343,627.391589 L569.999301,632.950382 C569.999301,632.950382 572.025712,632.238725 572.217655,630.171443 C572.409597,628.100502 576.251597,587.258883 576.251597,587.258883 C576.251597,587.258883 576.439344,584.549464 574.081491,584.276875 C571.716296,584.004287 528.82288,581.089969 528.82288,581.089969 C528.82288,581.089969 526.51747,580.874093 526.355944,582.62488 C526.19337,584.374751 525.698305,587.063132 525.698305,587.063132 L523.207246,586.888419 L523.465267,584.07838 L509.176552,583.015468 L508.599675,585.938933 L505.325112,585.628841 L505.550618,582.814228 L494.883641,581.981827 L494.500804,584.679355 C494.500804,584.679355 490.881164,584.504642 490.63573,586.489599 C490.391344,588.474555 486.988819,624.276031 486.988819,624.276031 C486.988819,624.276031 486.591298,627.240659 488.78343,627.391589" id="Fill-5" fill="#FFFFFF"></path>
                <path d="M576.128774,596.374035 C575.538262,599.039517 576.108845,595.779959 576.149751,595.236176 C576.203243,594.489128 576.253589,593.743128 576.266175,592.993985 C576.287153,591.784879 576.273517,590.578915 576.245198,589.367713 C569.724392,588.755826 531.837218,585.805355 531.837218,585.805355 C531.837218,585.805355 529.533906,585.561228 529.37238,587.565579 C529.210855,589.56993 528.716838,592.649274 528.716838,592.649274 L526.221584,592.449154 L526.482751,589.227315 L512.192987,588.014017 L511.61611,591.360539 L508.33945,591.006398 L508.567054,587.782464 L497.902174,586.830057 L497.518289,589.917784 C497.518289,589.917784 493.899698,589.716615 493.652165,591.991286 C493.635383,592.144258 493.603917,592.491064 493.560914,592.970935 C499.824747,592.951027 506.03404,593.867811 512.377588,594.070027 C519.129145,594.286912 525.647853,596.331077 532.422485,596.220015 C535.431685,596.168675 538.0098,597.988622 539.593589,600.46027 C540.859572,600.55352 542.123456,600.647818 543.391537,600.741068 C543.75864,600.686584 544.123646,600.632101 544.46243,600.592287 C546.811892,600.312537 549.169745,600.201475 551.524451,600.047455 C555.660134,599.778183 559.305996,599.836857 563.33784,600.963191 C565.941128,601.689284 568.720626,601.096256 571.413068,600.959 C573.011541,600.878323 574.489395,601.374958 575.759572,602.233067 C575.809918,602.220494 575.855019,602.202682 575.904316,602.190109 C575.4103,600.27377 575.668321,598.446489 576.128774,596.374035" id="Fill-7" fill="#DEDEEB"></path>
                <polygon id="Fill-9" fill="#FFFFFF" points="569.226778 596.747014 556.734772 595.738028 557.461636 586.738881 569.956789 587.745771"></polygon>
                <polygon id="Fill-13" fill="#AAE7ED" points="568.065568 597.043192 559.563452 596.35901 560.034393 590.510455 568.536509 591.193589"></polygon>
                <polygon id="Stroke-11" stroke="#3C628F" stroke-width="0.7" points="569.226778 596.747014 556.734772 595.738028 557.461636 586.738881 569.956789 587.745771"></polygon>
                <path d="M512.213445,632.139337 C519.23266,632.654981 522.437801,633.498462 528.949112,633.536182 C529.435558,633.538999 533.706676,633.790855 534.149298,633.845338 C533.13819,632.935889 528.879984,630.556523 528.252761,629.35056 C527.150402,628.316428 526.426641,627.260249 525.734389,625.757771 C524.340444,622.729766 523.334426,620.070615 523.16451,616.817343 C522.871876,611.206628 527.030666,604.776829 530.787708,600.938911 C530.787708,600.938911 530.184328,600.891467 529.882638,600.867745 L494.093133,598.053602 L491.675127,630.098626 C491.776867,630.110151 504.933184,631.594687 512.213445,632.139337 Z" id="Fill-15" fill="#D2D8F8"></path>
                <path d="M573.950481,607.205146 C573.967079,606.811191 573.873416,604.995415 573.950481,604.644418 L560.684481,603.710962 C563.857166,607.408481 565.039457,613.452894 564.587741,618.397239 C563.936842,625.503097 559.258912,632.122636 552.413216,635.093015 L552.020305,635.724971 L571.735767,637.132102 C571.658702,636.693094 571.620763,636.231035 571.643289,635.742782 C572.040468,626.179945 573.531961,616.737599 573.950481,607.205146 Z" id="Fill-17" fill="#D2D8F8"></path>
                <path d="M548.447885,633.59165 C549.420184,633.277324 550.367311,632.900133 551.272483,632.445409 C557.213266,629.466648 561.513621,623.571992 562.087351,616.466134 C562.48697,611.523885 561.005969,606.869769 558.258987,603.179584 C554.992815,598.791596 549.940422,595.763591 544.054181,595.290007 C533.221482,594.414086 523.730285,602.481781 522.85553,613.304017 C522.194743,621.474392 526.636695,628.87362 533.513067,632.38883 C535.747154,633.528785 538.230871,634.266403 540.886602,634.479096 C543.526601,634.692838 546.075347,634.356509 548.447885,633.59165" id="Fill-21" fill="#FCFCFC"></path>
                <path d="M548.447885,633.59165 C549.420184,633.277324 550.367311,632.900133 551.272483,632.445409 C557.213266,629.466648 561.513621,623.571992 562.087351,616.466134 C562.48697,611.523885 561.005969,606.869769 558.258987,603.179584 C554.992815,598.791596 549.940422,595.763591 544.054181,595.290007 C533.221482,594.414086 523.730285,602.481781 522.85553,613.304017 C522.194743,621.474392 526.636695,628.87362 533.513067,632.38883 C535.747154,633.528785 538.230871,634.266403 540.886602,634.479096 C543.526601,634.692838 546.075347,634.356509 548.447885,633.59165 Z" id="Stroke-23" stroke="#3C628F" stroke-width="1.4"></path>
                <path d="M544.045421,629.26334 C551.062893,627.403284 553.554206,623.748211 555.30427,617.544678 C555.30427,614.082535 556.473942,611.74093 554.357272,609.327795 C551.84415,606.46268 548.156022,604.653856 544.045421,604.653856 C536.472678,604.653856 530.333756,610.792777 530.333756,618.36552 C530.333756,622.255414 531.953555,625.766984 534.555444,628.26252 C537.517173,629.303511 540.362571,629.26334 544.045421,629.26334 Z" id="Oval" fill="#AAE7ED"></path>
                <path d="M488.782565,634.126337 L569.997387,640.493529 C569.997387,640.493529 572.025896,639.678377 572.21574,637.310457 C572.407683,634.938345 576.25283,588.15724 576.25283,588.15724 C576.25283,588.15724 576.440577,585.053797 574.080626,584.741567 C571.71648,584.429337 528.822014,581.091197 528.822014,581.091197 C528.822014,581.091197 526.516605,580.843928 526.355079,582.849326 C526.192505,584.853677 525.698489,587.933021 525.698489,587.933021 L523.205332,587.732901 L523.465451,584.514205 L509.175686,583.296716 L508.59881,586.645334 L505.323198,586.290145 L505.550802,583.066211 L494.883825,582.112756 L494.499939,585.202578 C494.499939,585.202578 490.880299,585.002457 490.634864,587.276081 C490.391527,589.549704 486.989003,630.557691 486.989003,630.557691 C486.989003,630.557691 486.590433,633.953457 488.782565,634.126337 Z" id="Stroke-27" stroke="#3C628F" stroke-width="1.4" stroke-linejoin="round"></path>
                <path d="M574.207642,602.483689 L554.848985,600.882282" id="Stroke-29" stroke="#3C628F" stroke-width="1.4"></path>
                <path d="M489.78934,592.396242 L536.393648,596.157673" id="Stroke-31" stroke="#3C628F" stroke-width="1.4"></path>
                <path d="M555.471122,616.001293 C554.847046,623.70437 548.092343,629.440815 540.382122,628.819498 C532.6719,628.197133 526.928304,621.449606 527.551331,613.75072 C528.17331,606.046596 534.925915,600.307007 542.637186,600.928324 C550.347407,601.550689 556.094149,608.297168 555.471122,616.001293 Z" id="Stroke-37" stroke="#3C628F" stroke-width="1.4"></path>
                <path d="M509.374939,594.354323 L509.541709,594.897059 C510.597918,595.196716 511.334223,596.209893 511.242971,597.344609 C511.138085,598.631249 510.00321,599.599373 508.712055,599.494597 C507.418802,599.391918 506.455942,598.256154 506.55978,596.967418 C506.642641,595.944812 507.37475,595.125469 508.319779,594.883438 L508.472914,594.282028 C507.159732,594.291458 505.944095,595.476466 505.82872,596.907696 C505.691318,598.598769 506.959398,600.087625 508.653319,600.225929 C510.347239,600.360041 511.834532,599.094356 511.971934,597.402236 C512.0957,595.863087 510.889503,594.699034 509.374939,594.354323 Z" id="Stroke-43" stroke="#3C628F" stroke-width="1.4"></path>
                <path d="M486.489213,629.640531 L539.291244,634.354998" id="Stroke-33" stroke="#3C628F" stroke-width="1.4"></path>
                <g id="Group" transform="translate(450.006605, 189.505341) rotate(29.000000) translate(-450.006605, -189.505341) translate(437.006605, 131.505341)">
                    <path d="M21.6987481,1.96559028 C17.172887,6.93298519 12.6564656,12.8999361 11.5520086,19.9355945 C11.2069314,22.1075856 11.2803521,23.7001695 11.5048096,25.840728 C11.6464067,27.2028063 12.5893381,29.4628086 13.7504339,30.1459433 C16.2079293,31.5907941 18.3602044,31.1004459 20.9362218,30.5105612 C24.5831324,29.6828367 25.8596035,22.5685967 25.5019399,19.1508279 C25.2439186,16.664511 24.8988414,14.390888 23.9705941,12.0921188 C23.0738128,9.87402665 22.0805357,8.25524893 21.9315966,5.72806974 C21.8581759,4.47286217 21.7763643,3.21451134 21.6987481,1.96559028" id="Fill-51" fill="#FCFCFC" transform="translate(18.437221, 16.528795) rotate(1.000000) translate(-18.437221, -16.528795) "></path>
                    <path d="M14.159134,13.2546445 C15.6946753,13.4987709 16.1823985,12.2267992 17.1410629,13.9587342 C17.605711,14.8032228 18.1154604,15.4517816 19.0342679,15.6215176 C20.1418715,15.8300203 20.397795,14.9352396 21.296674,14.5339504 C22.0969596,14.175619 23.2863747,14.6177706 24.1579832,14.6764447 C24.2450392,14.683779 24.7422022,13.6276444 24.7558374,13.4987709 C24.8019876,13.0346165 24.5271844,12.5599846 24.3824408,12.130406 C23.985969,10.919204 23.6975306,9.66294872 23.2024654,8.49680011 C22.6402727,7.16615435 22.7462082,5.70873054 22.4745517,4.28378705 C21.6868526,0.153546432 18.2623018,6.51969102 17.3267124,7.80842668 C15.9946513,9.64304142 14.7328643,11.1381843 14.143401,13.3520855" id="Fill-57" fill="#AAE7ED" transform="translate(19.452199, 9.280531) rotate(1.000000) translate(-19.452199, -9.280531) "></path>
                    <path d="M21.1504558,29.9381505 C19.9085973,30.1131251 18.6394682,30.2849565 17.3808278,30.1938021 C16.0309359,30.0942656 14.6684577,29.8951926 13.4811402,29.3094989 C12.8444779,31.0152401 12.2581613,32.7000262 11.771487,34.4780623 C6.66350465,53.0285215 3.70360194,72.2757361 2.60858478,91.4999002 C2.32224409,96.4756771 1.71390122,101.565659 1.93206556,106.537245 C2.04429433,109.052899 2.39776251,111.419772 2.78374557,113.894564 C2.96834617,115.079572 3.71723721,115.754324 4.73673595,115.515437 C5.96391035,115.2294 6.25339764,114.295853 6.87118031,113.207238 C11.5606647,104.880748 13.0836196,94.6903068 15.312462,85.4040758 C19.6726022,67.2475716 21.5710515,48.3366855 21.9402527,29.7181224 C21.6948178,29.8208022 21.4336499,29.8983359 21.1504558,29.9381505" id="Fill-53" fill="#FFFFFF" transform="translate(11.913020, 72.436362) rotate(1.000000) translate(-11.913020, -72.436362) "></path>
                    <path d="M20.1467282,38.7384329 C18.6489461,39.5431069 16.7337149,39.6667417 15.1058733,39.3639412 C14.6464696,39.280121 14.177626,39.1418177 13.7161245,38.966843 C13.5755764,39.4970058 13.4360771,40.0292641 13.3123107,40.5730477 C9.06754595,59.3393439 7.00337567,78.7049545 6.79674887,97.9584557 C6.74325665,102.940519 6.37090887,108.051456 6.81667734,113.011517 C6.8754139,113.635977 6.94673685,114.252056 7.02959735,114.863943 C7.44494868,114.665918 7.92008544,114.551713 8.46339855,114.582098 C7.74492465,114.542283 8.57772506,114.008977 8.86511462,113.489292 C9.28675916,112.72548 9.66225355,111.957478 9.98320685,111.13604 C10.4604413,109.918551 10.9083076,108.685346 11.2953395,107.428043 C12.6787951,102.920612 13.814718,98.3534584 14.8835135,93.7485859 C14.9212727,93.591423 14.9758138,93.4489286 15.0355992,93.3106253 C15.0387458,93.0727855 15.0597232,92.8202771 15.116362,92.5489092 C16.8165754,84.2381358 18.9719971,75.722003 18.6604836,67.1660555 C18.6174801,66.0491513 18.988779,65.1334156 19.5614604,64.4565674 C19.2090411,63.8897333 19.0160495,63.1594497 19.0957634,62.2699078 C19.7848691,54.4316708 20.5169782,46.5881951 20.1467282,38.7384329" id="Fill-55" fill="#F2F0EC" transform="translate(13.423270, 76.801188) rotate(1.000000) translate(-13.423270, -76.801188) "></path>
                    <path d="M21.7004273,1.02269688 C17.1745661,5.9921873 12.6591936,11.9591382 11.5526389,18.9937489 C11.2075617,21.1667877 11.2799335,22.7604194 11.5033422,24.8999301 C11.6480858,26.2620084 12.5920661,28.5220107 13.7531619,29.2040976 C16.2096085,30.6510439 18.3639813,30.1575525 20.9399987,29.5697633 C24.5848116,28.7420388 25.8623316,21.6267511 25.5036191,18.21003 C25.2445489,15.7216176 24.9026183,13.4500901 23.9712243,11.1513209 C23.0744431,8.9342765 22.0822149,7.31130778 21.9332757,4.78727185 C21.8598551,3.53311203 21.7790923,2.2747612 21.7004273,1.02269688 Z" id="Stroke-59" stroke="#3C628F" stroke-width="1.4" stroke-linejoin="round" transform="translate(18.438196, 15.586699) rotate(1.000000) translate(-18.438196, -15.586699) "></path>
                    <path d="M20.2051251,29.9360549 C18.9643154,30.1120774 17.6951863,30.2849565 16.4365459,30.1917066 C15.087703,30.0932178 13.7252247,29.8951926 12.5358095,29.3094989 C11.9001961,31.0152401 11.3149283,32.696883 10.8251074,34.4759668 C5.71817395,53.026426 2.75932011,72.2746884 1.66640068,91.4967569 C1.37901112,96.4735816 0.771717124,101.562516 0.988832596,106.537245 C1.10106137,109.050803 1.45243181,111.417676 1.84051261,113.893516 C2.02406434,115.078524 2.77085765,115.752229 3.79350298,115.514389 C5.01857965,115.228353 5.30806695,114.293757 5.92480075,113.205142 C10.6142852,104.878653 12.1382889,94.689259 14.3671313,85.4019803 C18.7283204,67.2465238 20.6267696,48.3324945 20.994922,29.7149792 C20.7515848,29.8166112 20.4883192,29.8972881 20.2051251,29.9360549 Z" id="Stroke-61" stroke="#3C628F" stroke-width="1.4" stroke-linejoin="round" transform="translate(10.968908, 72.435680) rotate(1.000000) translate(-10.968908, -72.435680) "></path>
                    <path d="M11.3147208,34.9668593 C11.3147208,34.9668593 15.3811782,38.5983697 21.4709001,35.9968001" id="Stroke-63" stroke="#3C628F" stroke-width="1.4" transform="translate(16.392810, 35.951174) rotate(1.000000) translate(-16.392810, -35.951174) "></path>
                </g>
                <polygon id="Fill-71" fill="#FFFFFF" points="353.069797 573.044765 354.648342 572.878173 361.427169 637.073972 359.849673 637.24266"></polygon>
                <polygon id="Fill-73" fill="#FFFFFF" points="356.841371 572.157403 358.970571 571.935279 365.749398 636.127936 363.620198 636.353202"></polygon>
                <polygon id="Fill-75" fill="#FFFFFF" points="362.498731 572.11654 364.218873 571.935279 370.998749 636.133174 369.278607 636.313388"></polygon>
                <path d="M356.841371,571.935279 L363.353786,636.132127" id="Fill-87" fill="#FFFFFF"></path>
                <path d="M361.555838,571.935279 L368.068253,636.130031" id="Fill-89" fill="#FFFFFF"></path>
                <polygon id="Fill-95" fill="#DEDEEB" points="352.126904 567.193655 360.816767 566.277919 361.353787 571.35428 352.662875 572.268968"></polygon>
                <polygon id="Fill-101" fill="#FFD667" points="353.069797 573.044765 354.647293 572.878173 361.427169 637.071877 359.849673 637.241613"></polygon>
                <polygon id="Fill-103" fill="#FFD667" points="356.841371 572.161594 358.969522 571.935279 365.749398 636.132127 363.620198 636.357393"></polygon>
                <polygon id="Fill-105" fill="#FFD667" points="362.498731 571.173647 364.219922 570.992386 370.998749 635.189233 369.278607 635.370494"></polygon>
                <path d="M352.134854,563.192079 C352.090802,564.607593 352.237643,566.014724 352.382387,567.430238 C353.169037,567.269932 353.960931,567.103339 354.760168,567.012185 C357.42429,566.710432 360.087364,566.706241 362.764072,566.633946 L362.450461,563.548315 C362.450461,563.548315 359.34057,557.177979 355.633874,556.848985 C354.123506,558.640642 352.213519,560.737195 352.134854,563.192079" id="Fill-107" fill="#FA8383"></path>
                <path d="M352.126904,563.969791 L359.538198,636.848316 L367.707823,650.027996 L373.088511,635.560628 L365.689803,562.611904 C365.689803,562.611904 357.824349,546.65568 352.126904,563.969791 Z" id="Stroke-109" stroke="#3C628F" stroke-width="1.4"></path>
                <path d="M352.126904,567.614851 L365.688754,566.277919" id="Stroke-113" stroke="#3C628F" stroke-width="1.4"></path>
                <path d="M353.069797,572.327223 L366.635843,570.992386" id="Stroke-115" stroke="#3C628F" stroke-width="1.4"></path>
                <path d="M356.841371,571.935279 L363.353786,636.133174" id="Stroke-117" stroke="#3C628F" stroke-width="1.4"></path>
                <path d="M361.555838,571.935279 L368.067204,636.132127" id="Stroke-119" stroke="#3C628F" stroke-width="1.4"></path>
                <path d="M578.27562,504.019113 C578.000817,505.629509 576.457934,506.723362 574.844776,506.448851 L491.113723,492.207798 C489.501614,491.933287 488.406597,490.390995 488.6814,488.781648 L507.35438,379.24226 C507.629183,377.631864 509.172066,376.538011 510.784175,376.812522 L594.51313,391.054622 C596.126288,391.328086 597.220256,392.870378 596.946502,394.479726 L578.27562,504.019113 Z" id="Fill-125" fill="#FCFCFC"></path>
                <path d="M578.624893,503.798142 C578.35009,505.40749 576.807206,506.501344 575.195098,506.226833 L496.366449,492.818743 C494.75434,492.544232 493.659323,491.00194 493.934126,489.391544 L512.106796,382.791103 C512.381599,381.181755 513.924482,380.087901 515.53764,380.361365 L594.364191,393.768406 C595.975251,394.042918 597.070268,395.585209 596.795465,397.195605 L578.624893,503.798142 Z" id="Fill-127" fill="#F4DBB3"></path>
                <path d="M578.624893,503.798142 C578.35009,505.40749 576.807206,506.501344 575.195098,506.226833 L491.464044,491.98578 C489.851936,491.711268 488.756919,490.168977 489.031722,488.558581 L507.70575,379.017098 C507.979504,377.40775 509.523437,376.313896 511.134496,376.588408 L594.863452,390.831556 C596.475561,391.105019 597.569529,392.647311 597.295775,394.256659 L578.624893,503.798142 Z" id="Stroke-129" stroke="#3C628F" stroke-width="1.4"></path>
                <polygon id="Fill-131" fill="#FFFFFF" points="527.628874 384.72473 588.558608 395.089098 571.274328 496.479067 498.393804 484.083106 515.674937 382.691042"></polygon>
                <polyline id="Stroke-133" stroke="#3C628F" stroke-width="1.4" points="527.628874 384.72473 588.558608 395.089098 571.274328 496.479067 498.393804 484.083106 515.674937 382.691042 527.628874 384.72473"></polyline>
                <path d="M538.009415,411.722924 L574.219451,417.881614" id="Stroke-135" stroke="#DEDEEB" stroke-width="1.4" stroke-linecap="round"></path>
                <path d="M535.320645,427.489295 L571.531729,433.649033" id="Stroke-137" stroke="#DEDEEB" stroke-width="1.4" stroke-linecap="round"></path>
                <path d="M532.219543,443.701777 L568.432726,449.862562" id="Stroke-139" stroke="#DEDEEB" stroke-width="1.4" stroke-linecap="round"></path>
                <path d="M529.943208,462.999113 L566.156391,469.159898" id="Stroke-139-Copy" stroke="#DEDEEB" stroke-width="1.4" stroke-linecap="round"></path>
                <polyline id="Stroke-145" stroke="#DEDEEB" stroke-width="1.4" stroke-linecap="round" points="519.432931 409.200774 522.516601 413.542661 530.358979 405.545166"></polyline>
                <polyline id="Stroke-147" stroke="#DEDEEB" stroke-width="1.4" stroke-linecap="round" points="513.873202 441.829466 516.954773 446.1724 524.794005 438.173857"></polyline>
                <path d="M519.336646,458.971012 C518.895072,461.561056 516.43443,463.302421 513.843729,462.860269 C511.251979,462.419166 509.508762,459.961138 509.951383,457.375285 C510.390859,454.78524 512.849403,453.044923 515.442202,453.483932 C518.032904,453.925036 519.778219,456.380968 519.336646,458.971012 Z" id="Stroke-151" stroke="#DEDEEB" stroke-width="1.4" stroke-linecap="round"></path>
                <path d="M525.68313,426.487644 C525.242606,429.079784 522.784062,430.819053 520.190213,430.378997 C517.600561,429.936845 515.856295,427.481961 516.296819,424.890869 C516.74049,422.30292 519.200083,420.562603 521.790785,421.002659 C524.382535,421.442715 526.125752,423.898647 525.68313,426.487644 Z" id="Stroke-153" stroke="#DEDEEB" stroke-width="1.4" stroke-linecap="round"></path>
                <polygon id="Fill-193" fill="#F9E3B2" points="628.389341 262.307264 606.942578 308.517328 650.723288 334.106889"></polygon>
                <polygon id="Stroke-195" stroke="#3C628F" stroke-width="1.4" points="627.44808 260.421478 603.171004 309.07282 650.148709 333.974755"></polygon>
                <polygon id="Stroke-199" stroke="#3C628F" stroke-width="1.4" fill="#FFFFFF" points="624.980613 286.822493 616.371512 304.07793 633.032765 312.910484"></polygon>
                <path d="M635.22938,300.492477 L639.836004,299.080107" id="Stroke-209" stroke="#3C628F" stroke-width="1.4"></path>
                <path d="M633.343593,293.893271 L637.951266,292.479853" id="Stroke-211" stroke="#3C628F" stroke-width="1.4"></path>
                <path d="M631.457807,288.234863 L636.067577,286.822493" id="Stroke-213" stroke="#3C628F" stroke-width="1.4"></path>
                <path d="M629.57202,281.633562 L634.180741,280.222239" id="Stroke-215" stroke="#3C628F" stroke-width="1.4"></path>
                <path d="M627.686233,275.975154 L632.294955,274.564879" id="Stroke-217" stroke="#3C628F" stroke-width="1.4"></path>
                <polygon id="Fill-221" fill="#FAFBFC" points="194.021024 185.348985 200.774679 214.042737 196.392513 215.072677 189.63676 186.377878"></polygon>
                <polygon id="Fill-223" fill="#FCFCFC" points="209.218096 211.75 210.774615 218.364462 190.251434 223.188315 188.693867 216.573853"></polygon>
                <path d="M197.720226,222.394327 L202.895336,221.178934 L212.03831,230.197988 L220.292893,265.255789 C220.292893,265.255789 221.836825,273.067832 212.777761,275.094186 C203.722892,277.127873 201.662917,269.632251 201.662917,269.632251 L193.408334,234.575498 L197.720226,222.394327 Z" id="Fill-225" fill="#FCFCFC"></path>
                <path d="M211.330134,229.087454 C209.548109,227.185783 206.322843,225.618346 205.537242,222.989534 C205.349495,222.974866 205.15965,222.927717 204.965609,222.832371 C203.961843,222.343071 203.386015,221.318369 203.304204,220.236041 L202.435742,220.439305 L198.122801,232.619428 L211.747583,229.418544 C211.5934,229.323199 211.448656,229.21528 211.330134,229.087454" id="Fill-227" fill="#AAE7ED"></path>
                <path d="M216.034303,246.48769 C215.628391,245.071128 215.544482,243.629421 215.175281,242.204477 C215.129131,242.027407 215.121788,241.860814 215.135424,241.705747 C214.486175,239.792551 214.024674,237.800773 213.673303,235.82576 C213.664912,235.771277 213.664912,235.717841 213.661766,235.66231 C213.56527,235.520864 213.479263,235.367892 213.422624,235.187678 C212.9821,233.77426 211.967845,231.524735 212.093709,229.664975 L198.122801,232.948631 L206.375286,268.003289 C206.375286,268.003289 208.188778,274.582127 215.867533,273.74183 C215.939905,273.674773 216.015423,273.609813 216.104577,273.550091 C216.874445,273.030406 217.513205,272.322125 218.320833,271.861114 C218.424671,271.80244 218.525362,271.742718 218.627102,271.687187 C219.049795,271.146546 219.407459,270.522086 219.74939,269.781325 C220.360879,268.458013 220.414371,267.171373 220.755253,265.810343 C220.583239,265.637463 220.439544,265.413244 220.36927,265.115683 C220.314729,264.883082 220.311582,264.665149 220.348293,264.472363 C220.284312,264.336155 220.23082,264.186326 220.207745,264.005065 C219.849032,261.177181 218.932322,258.686673 218.211751,255.947848 C217.520547,253.329514 217.157639,250.649363 216.305959,248.071892 C216.179046,247.683175 216.219952,247.356277 216.350012,247.081766 C216.215757,246.919364 216.102479,246.728673 216.034303,246.48769" id="Fill-229" fill="#AAE7ED"></path>
                <polygon id="Fill-231" fill="#AAE7ED" points="208.355776 211.75 209.913343 218.363414 194.021959 222.097604 192.46544 215.48419"></polygon>
                <polygon id="Stroke-235" stroke="#3C628F" stroke-width="1.4" points="209.218096 211.75 210.775664 218.363414 190.251434 223.188315 188.693867 216.573853"></polygon>
                <path d="M197.721275,221.451434 L202.896385,220.236041 L212.03831,229.255095 L220.293942,264.314991 C220.293942,264.314991 221.837874,272.125986 212.77881,274.151292 C203.722892,276.186028 201.661868,268.691454 201.661868,268.691454 L193.408334,233.633653 L197.721275,221.451434 Z" id="Stroke-237" stroke="#3C628F" stroke-width="1.4"></path>
                <polygon id="Stroke-239" stroke="#3C628F" stroke-width="1.4" points="194.021024 185.348985 200.774679 214.042737 196.391464 215.07163 189.63676 186.377878"></polygon>
                <path d="M212.935569,263.8448 L207.551735,240.979695" id="Stroke-243" stroke="#3C628F" stroke-width="1.4"></path>
                <path d="M193.408334,234.10535 L212.304722,229.664975" id="Stroke-245" stroke="#3C628F" stroke-width="1.4"></path>
                <path d="M216.707143,262.902954 L211.323308,240.036802" id="Stroke-247" stroke="#3C628F" stroke-width="1.4"></path>
                <path d="M275.788104,633.22335 L275.788104,640.359593" id="Stroke-575" stroke="#FFD667" stroke-width="2.1" stroke-linecap="round" stroke-linejoin="round"></path>
                <path d="M360.612944,636.842036 C363.387197,636.581146 366.161451,636.316064 368.937802,636.05203" id="Fill-69" fill="#FFFFFF"></path>
                <path d="M358.727157,637.339718 L372.276421,636.05203" id="Fill-91" fill="#FFFFFF"></path>
                <path d="M360.612944,636.844131 C363.387197,636.580098 366.163548,636.316064 368.937802,636.05203" id="Fill-99" fill="#F4DBB3"></path>
                <path d="M553.438869,382.084918 C552.486498,381.922516 551.843542,381.017258 552.004019,380.062755 C552.168691,379.1093 553.073863,378.471219 554.028332,378.630477 C554.981752,378.792879 555.623659,379.697089 555.461085,380.649497 C555.301657,381.605047 554.393338,382.247319 553.438869,382.084918 M561.120771,381.980142 C561.73226,378.407306 558.879342,374.938197 554.745757,374.234108 C550.619514,373.533161 546.777515,375.864411 546.169172,379.438295 C546.103093,379.814438 546.085262,380.189533 546.095751,380.560438 L532.294759,378.212424 L530.521125,388.622894 L572.936258,395.687889 L574.687866,385.424105 L560.819746,383.065614 C560.950854,382.71776 561.058888,382.358381 561.120771,381.980142" id="Fill-155" fill="#FFFFFF"></path>
                <path d="M555.619568,385.074679 C554.666148,384.912278 554.030535,383.968253 554.2015,382.966601 C554.372465,381.963902 555.282882,381.282863 556.2384,381.444217 C557.193918,381.606618 557.829531,382.550644 557.657517,383.554391 C557.486552,384.556042 556.575086,385.237081 555.619568,385.074679 M574.014598,387.91828 L563.002543,386.042803 C563.136798,385.677137 563.247978,385.297851 563.316154,384.9018 C563.424188,384.254289 563.424188,383.608874 563.341327,382.985461 C561.615941,382.447964 561.068432,380.680405 561.447073,379.146495 C560.322688,377.976156 558.784,377.125381 556.998828,376.821533 C552.871537,376.118491 549.002266,378.598521 548.359311,382.357857 C548.294281,382.754955 548.273304,383.14891 548.278548,383.536579 L534.479654,381.191708 L533.195841,388.71562 C533.228355,388.724002 533.259821,388.72924 533.291287,388.73867 C542.339863,391.464922 551.97056,392.070523 561.233105,393.847512 C564.284259,394.436349 569.47615,396.229053 572.583943,395.494579 C573.033907,395.388756 573.757626,389.739274 574.014598,387.91828" id="Fill-157" fill="#DEDEEB"></path>
                <path d="M553.074178,383.27485 C553.31332,381.8761 554.781733,380.959317 556.35818,381.226494 C557.931481,381.495766 559.018107,382.847367 558.780014,384.244021 C558.541922,385.640675 557.07141,386.558507 555.494963,386.288186 C553.919565,386.019962 552.835036,384.670457 553.074178,383.27485" id="Fill-159" fill="#DEDEEB"></path>
                <path d="M553.438869,382.084918 C552.486498,381.922516 551.843542,381.017258 552.004019,380.062755 C552.168691,379.1093 553.073863,378.471219 554.028332,378.630477 C554.981752,378.792879 555.623659,379.697089 555.461085,380.649497 C555.301657,381.605047 554.393338,382.247319 553.438869,382.084918 Z M561.120771,381.980142 C561.73226,378.407306 558.879342,374.938197 554.745757,374.234108 C550.619514,373.533161 546.777515,375.864411 546.169172,379.438295 C546.103093,379.814438 546.085262,380.189533 546.095751,380.560438 L532.294759,378.212424 L530.521125,388.622894 L572.936258,395.687889 L574.687866,385.424105 L560.819746,383.065614 C560.950854,382.71776 561.058888,382.358381 561.120771,381.980142 Z" id="Stroke-161" stroke="#3C628F" stroke-width="1.4"></path>
                <g id="Group-2" transform="translate(128.927249, 432.357580)">
                    <path d="M25.8457649,75.2928019 L27.3246674,57.7691402 L21.4510122,58.409317 L57.9736103,54.4875792 L51.7873927,55.1413768 L57.0862688,71.9368504 L25.8457649,75.2928019 Z M73.7296906,43.9314721 L1.89803333,51.6544562 L2.84096478,60.3989992 L21.0713223,58.4407496 L16.7101333,106.944359 L22.9309635,106.274845 L25.3475531,80.5923344 L58.7025729,77.0069251 L66.4138432,101.208962 L72.5801323,100.499633 L58.1645041,54.4530033 L74.672622,52.6823015 L73.7296906,43.9314721 Z" id="Fill-163" fill="#FCFCFC"></path>
                    <path d="M27.7315517,76.8286393 L27.7346983,76.7993022 C27.7011346,76.808732 27.6780595,76.8254961 27.6444958,76.8296871 C26.5977265,76.9564651 23.4930801,77.2561224 23.4930801,77.2561224 C23.4930801,77.2561224 23.5077643,76.8066365 23.4815426,76.3665804 C23.4511255,75.8081283 23.8161312,75.453988 24.3132941,75.3376874 C24.8545095,75.2067183 25.4041158,75.149092 25.9579176,75.1040386 C24.6845931,74.149536 24.1307913,72.0225983 25.7271669,70.6657587 C24.6594203,71.5731125 25.3275485,70.8994076 25.3264997,69.7982196 C25.3254508,69.0092619 25.2866427,68.2182087 25.2897893,67.4271555 C25.2971314,64.9073106 25.5142469,62.3769882 25.6684303,59.8644775 C25.7512908,58.511829 27.4347224,57.292245 28.746855,57.6505764 C29.6373431,57.8957505 30.5456619,57.8203123 31.43615,57.6201915 C32.7115723,57.3352028 33.5789853,57.918801 33.9859457,58.7968177 L44.0508736,57.715537 C44.3099437,56.6457816 45.2151159,55.7866245 46.358381,55.6640375 L48.1865562,55.4660123 C48.3732545,55.4471527 48.5578551,55.4565825 48.740358,55.475442 C48.9018835,55.2438887 49.2396187,55.2575095 49.4672228,55.0877736 C50.2014297,54.5450378 50.8842421,54.7996416 51.6593548,55.0531977 C52.2215476,55.1967399 52.6977332,54.946327 53.0102956,55.3685713 C53.0281263,55.3874308 53.0501525,55.4041949 53.0669344,55.4220067 C53.1225243,55.4890628 53.1749677,55.5540235 53.2305576,55.6210796 C53.5315825,55.979411 53.2305576,55.6210796 53.7329649,56.8584754 L58.9741534,73.4684968 L27.7315517,76.8286393 Z M71.2291155,100.060457 C71.1955518,99.9410132 71.1640858,99.8184261 71.1294732,99.6968868 C71.0812253,99.5281987 71.051857,99.357415 71.0350751,99.1855836 C71.0172444,99.1279572 70.9920716,99.0787128 70.9763386,99.0210864 C69.6820367,93.6125877 67.1689513,88.4387855 65.7110262,83.0355255 C65.6124327,82.6677644 65.6050906,82.3188628 65.6627783,81.9992982 C65.5631359,81.7918432 65.4834221,81.5665764 65.4456628,81.3035905 C64.9568908,77.7705689 63.1129826,74.4617663 61.9802062,71.0932418 C61.4515773,69.5237084 60.9575609,67.9426498 60.5044504,66.3479704 C60.2611132,65.4992908 60.3880261,64.0900636 59.876179,63.3796874 C59.4471924,62.7887549 59.3653808,62.1789629 59.5027824,61.6351794 C59.1535096,61.0536767 58.9133191,60.3914971 58.8336052,59.6413062 C58.8063347,59.3877501 58.8073835,59.1320985 58.8220677,58.8753991 C58.6070499,58.7559553 58.3899345,58.6375593 58.1843565,58.4929694 C56.9792083,57.6600061 56.911032,55.8033886 57.7794939,54.7242034 C58.6699819,53.6198722 60.1016854,53.5130015 61.2606835,54.154226 C61.2260709,54.1311755 61.1883116,54.1102204 61.1557968,54.0892654 C61.3708145,54.218139 61.5973698,54.3271052 61.8249739,54.4392147 C62.2854265,54.2401418 62.7857361,54.1154592 63.3101696,54.0913609 C66.7147919,53.930007 70.0512379,53.2510633 73.4201987,52.8057685 C73.3331428,52.3908585 73.236647,51.7779232 73.2104253,51.6637182 C73.0824635,51.1293644 72.9471597,50.5866286 72.8622015,50.0417972 C72.6576724,48.738393 72.510831,47.4297501 72.3681851,46.1190116 C72.3555987,46.0184274 72.3555987,45.9188909 72.3514032,45.8172589 L3.78382013,53.1871504 L4.55998172,60.378924 C5.4955711,60.1777555 6.50458116,60.1484185 7.59854945,60.0876488 C10.8091314,59.9011489 13.9861496,58.9843654 17.1977803,58.6532756 C17.9676487,58.5778374 18.5812359,58.7894834 19.0500795,59.1593401 C19.1853833,58.9173092 19.4853593,58.3630481 19.1602105,59.0095114 C19.637445,58.0612954 20.7408531,57.5772337 21.7456677,58.0309105 C22.4872167,58.3630481 23.0934618,57.931374 23.0305298,58.7287137 L22.958158,59.9734438 L18.7322728,106.94943 C19.7612113,106.96829 20.7796612,106.887613 21.7939156,106.778646 C21.775036,106.49261 21.8484567,106.195048 22.0613767,105.946731 C22.0687187,105.938349 22.0760608,105.927871 22.082354,105.918442 C21.9648809,105.626119 21.9040466,105.296077 21.9229262,104.92622 C22.0928427,101.684473 22.208218,98.3337607 22.5008519,95.1140171 C22.6476933,93.4700933 22.5585396,91.5055573 23.249743,89.9580267 C23.2581339,89.0412432 23.2707203,88.1139822 23.3955355,87.2118672 C23.5140575,86.3694742 24.157013,84.5463847 23.8528415,83.7542838 C23.2539385,82.1795117 24.5859996,80.5135851 26.2599913,80.7713322 C28.5538635,81.1233771 31.4057329,80.0316189 33.7226801,79.8356892 C36.0228454,79.6408072 38.3282551,79.5999449 40.6315671,79.4584983 C40.6913525,79.4165882 40.7396004,79.3652483 40.8088256,79.3243859 C42.6453918,78.1823356 45.0588347,78.8623271 47.138738,78.4694198 C49.9832654,77.939257 52.8749917,77.7663779 55.7069326,77.1555381 C57.0599711,76.8611197 57.8550123,77.7559003 57.9997559,78.8172737 L60.5904574,78.5385715 L67.8150534,101.219271 C67.9723835,101.170027 68.1349579,101.136499 68.306972,101.135451 C69.2677342,101.136499 70.3354808,101.134403 71.3927388,101.027533 C71.3717615,100.826364 71.3465886,100.627291 71.3077806,100.428218 C71.2983408,100.367448 71.2091871,99.9986396 71.2291155,100.060457 L71.2291155,100.060457 Z" id="Fill-165" fill="#F2E8DA"></path>
                    <path d="M69.907582,43.9036059 C69.9600253,44.3908108 69.6034105,44.8329624 69.1156874,44.8853501 L5.3791857,51.7334608 C4.89041368,51.7848007 4.44884067,51.4296126 4.39639732,50.9424076 L0.0173775444,10.2801783 C-0.0350658061,9.79297337 0.320500111,9.35082179 0.809272138,9.29948191 L64.5447249,2.44927564 C65.0324481,2.39688801 65.4740211,2.75312388 65.5264644,3.23928107 L69.907582,43.9036059 Z" id="Fill-167" fill="#FCFCFC"></path>
                    <path d="M69.907582,43.9036059 C69.9600253,44.3908108 69.6034105,44.8329624 69.1156874,44.8853501 L5.3791857,51.7334608 C4.89041368,51.7848007 4.44884067,51.4296126 4.39639732,50.9424076 L0.0173775444,10.2801783 C-0.0350658061,9.79297337 0.320500111,9.35082179 0.809272138,9.29948191 L64.5447249,2.44927564 C65.0324481,2.39688801 65.4740211,2.75312388 65.5264644,3.23928107 L69.907582,43.9036059 Z" id="Stroke-169" stroke="#3C628F" stroke-width="1.4"></path>
                    <path d="M24.9028715,75.2928019 L26.381774,57.7670447 L20.5091676,58.4061738 L57.0296681,54.4833882 L50.8444993,55.1413768 L56.1444243,71.9337072 L24.9028715,75.2928019 Z M72.787846,43.9314721 L0.955139932,51.6523607 L1.89807137,60.3989992 L20.12738,58.4417974 L15.766191,106.941216 L21.9859724,106.27275 L24.4046597,80.5881433 L57.7607284,77.0058773 L65.4719986,101.208962 L71.6372389,100.497538 L57.2216107,54.4540511 L73.7297286,52.6823015 L72.787846,43.9314721 Z" id="Stroke-173" stroke="#3C628F" stroke-width="1.4"></path>
                    <path d="M27.7444894,33.8761633 C28.7555972,35.410073 34.9460103,37.3997552 35.902577,33.8122504 C36.8580949,30.2226501 38.79745,33.9557925 43.1208798,32.4690316 C47.4422119,30.9770319 47.1674087,29.4074986 48.9861441,30.6868045 C50.8059284,31.9703014 56.653362,31.5857762 59.1129551,25.7875135 C61.5704505,19.988203 51.400636,16.6469201 51.400636,16.6469201 C51.400636,16.6469201 52.5848068,13.0939911 49.3637362,13.5539545 C46.2601387,13.9961061 42.7401411,13.1840979 42.7401411,13.1840979 C42.7401411,13.1840979 41.383956,12.0179493 40.4441712,13.8368477 C38.1408592,18.2950349 32.0605771,14.051637 28.8447509,15.0826255 C25.6278758,16.1146618 27.9259434,19.9106693 28.4954782,20.996141 C29.0618664,22.0868514 28.2783627,25.7780837 27.0071359,27.017575 C25.7422023,28.2612573 26.7417725,32.340158 27.7444894,33.8761633" id="Fill-175" fill="#96E1FF" opacity="0.43823596"></path>
                    <polygon id="Fill-181" fill="#FCFCFC" points="43.7036062 54.3032995 32.0706222 55.5543161 32.4628984 59.1910652 44.0958824 57.9390009"></polygon>
                    <polygon id="Fill-185" fill="#EBBD63" points="44.2604785 55.2461929 33.956409 56.3515719 34.3465875 59.9893688 44.6517059 58.8808465"></polygon>
                    <polygon id="Stroke-187" stroke="#3C628F" stroke-width="1.4" points="45.0808066 58.6903234 31.7025079 60.1267922 31.1277288 54.7968749 44.5070764 53.3604061"></polygon>
                    <path d="M51.7484421,15.5191399 C50.4048435,13.4749747 43.1382928,15.3567383 41.8639194,20.138681 C40.5884971,24.9164327 43.3753368,23.7827644 37.616008,25.7672078 C31.8556304,27.7516511 25.8697464,21.4745655 23.443717,19.7677766 C21.0187364,18.0620354 13.22985,18.5691476 9.95214059,26.3005138 C6.67548005,34.0329278 20.2299884,38.4785419 20.2299884,38.4785419 C20.2299884,38.4785419 18.6514436,43.2133357 22.9486517,42.6014482 C27.0780411,42.0126113 31.7696233,43.0970352 31.7696233,43.0970352 C31.7696233,43.0970352 33.5757723,44.6456135 34.8291684,42.2221618 C37.8992021,36.2814048 46.0016998,41.9392686 50.2863215,40.5625218 C54.5740898,39.1826316 51.5113982,34.1314165 50.7520185,32.681327 C49.9968342,31.2301896 51.0415057,26.3120391 52.7343771,24.6555423 C54.4220041,23.001141 53.089943,17.5643529 51.7484421,15.5191399" id="Fill-189" fill="#7DD7E7" opacity="0.394191576"></path>
                    <path d="M36.9056197,18.2458279 C35.9847144,16.8428872 30.940713,9.42270356 30.0680556,12.7011213 C29.1933006,15.9763959 25.0848885,12.346981 21.1380019,13.7080116 C17.1942619,15.0679944 16.1317597,22.5940011 14.4682566,21.4268047 C12.8068512,20.2575128 7.47126475,20.6064144 5.22354275,25.9038514 C2.97791848,31.1991929 9.07288468,35.7233885 9.07288468,35.7233885 C9.07288468,35.7233885 11.1853028,37.4940903 14.1284237,37.076037 C16.9593157,36.6705568 20.1719954,37.4123656 20.1719954,37.4123656 C20.1719954,37.4123656 21.4128051,38.4737389 22.2686805,36.8151466 C24.3716589,32.7467234 29.9243609,36.6181692 32.8622374,35.6762396 C35.7980161,34.7311668 33.7023798,31.2693923 33.1821418,30.2761229 C32.6640015,29.2807579 33.3772311,25.9132812 34.5393757,24.7764697 C35.6941783,23.6428014 37.8244272,19.6487686 36.9056197,18.2458279" id="Fill-191" fill="#B8FFF6" opacity="0.657042572"></path>
                    <g id="Group-571" transform="translate(56.585851, 11.873096)">
                        <path d="M5.56088312,22.5419773 C6.04860628,22.488542 6.49122816,22.8437301 6.54472037,23.330935 L6.69680609,24.7223504 C6.75134718,25.2095554 6.39578126,25.6527547 5.9080581,25.7061901 L3.99807127,25.9157406 C3.51034811,25.969176 3.06772623,25.6150356 3.01423402,25.1267829 L2.86109943,23.7364153 C2.80760721,23.2492103 3.16212426,22.806011 3.64984742,22.7525756 L5.56088312,22.5419773 Z" id="Fill-565" fill="#F9AD77"></path>
                        <path d="M5.08092157,18.1740017 C5.56864473,18.1205663 6.01126661,18.4757544 6.06475883,18.9629594 L6.21684455,20.353327 C6.27138563,20.840532 5.91581972,21.2837313 5.42809655,21.3371667 L3.51706086,21.5467172 C3.0293377,21.6001526 2.58776469,21.2449644 2.5332236,20.7577595 L2.38113789,19.3673918 C2.32764567,18.8801869 2.68321159,18.4369876 3.17093475,18.3835522 L5.08092157,18.1740017 Z" id="Fill-566" fill="#91DC85"></path>
                        <path d="M4.60106492,13.8039305 C5.08878808,13.7504951 5.53140996,14.1056832 5.58490217,14.5928882 L5.73698789,15.9832558 C5.79152897,16.4704608 5.43596306,16.9136601 4.9482399,16.9670955 L3.03825307,17.1755983 C2.55052991,17.2290336 2.10790803,16.8738455 2.05441581,16.3866406 L1.90128123,14.9962729 C1.84778901,14.509068 2.20335493,14.0658686 2.69107809,14.0124333 L4.60106492,13.8039305 Z" id="Fill-567" fill="#B9C0F8"></path>
                        <path d="M4.12015939,9.43490708 C4.60788255,9.3814717 5.05050443,9.73665982 5.10399665,10.2238648 L5.25713123,11.6131847 C5.31167232,12.1003896 4.9561064,12.5435889 4.46943211,12.5970243 L2.55734755,12.8076226 C2.06962439,12.861058 1.62700251,12.5058698 1.57351029,12.0186649 L1.42037571,10.6282973 C1.36688349,10.1410923 1.72244941,9.69789297 2.21017257,9.64445759 L4.12015939,9.43490708 Z" id="Fill-568" fill="#AAE7ED"></path>
                        <path d="M3.64082717,5.06588365 C4.12855033,5.01244827 4.57117221,5.36763639 4.62466442,5.85484134 L4.77779901,7.24416124 C4.83129123,7.73136618 4.47572531,8.17456552 3.98905102,8.2280009 L2.07801532,8.43755141 C1.59029216,8.49098679 1.14767028,8.13579867 1.09417807,7.64859373 L0.941043482,6.25822607 C0.887551265,5.77102113 1.24206831,5.3278218 1.72979147,5.27438642 L3.64082717,5.06588365 Z" id="Fill-569" fill="#DEDEEB"></path>
                        <path d="M3.13946874,0.502397355 C3.6271919,0.448961974 4.06981378,0.804150094 4.12330599,1.29135504 L4.27539171,2.68067494 C4.32888393,3.16787988 3.97331801,3.61107922 3.48664372,3.6645146 L1.57665689,3.87511286 C1.08893373,3.92854824 0.646311852,3.57336013 0.592819635,3.08615518 L0.439685051,1.69578753 C0.386192833,1.20858258 0.74175875,0.765383249 1.22948191,0.711947868 L3.13946874,0.502397355 Z" id="Fill-570" fill="#FFD667"></path>
                    </g>
                    <polygon id="Fill-171" fill="#EBBD63" points="39.3855348 7.15862944 29.241942 8.24724436 29.6342182 11.8839935 39.7767622 10.7943308"></polygon>
                    <polygon id="Fill-177" fill="#FCFCFC" points="36.0869242 4.86568643 27.8187055 5.75418061 27.3561552 1.44477431 35.6243738 0.558375635"></polygon>
                    <polygon id="Stroke-179" stroke="#3C628F" stroke-width="1.4" points="36.0869242 4.86568643 27.8187055 5.75418061 27.3561552 1.44477431 35.6243738 0.558375635"></polygon>
                    <polygon id="Stroke-183" stroke="#3C628F" stroke-width="1.4" points="39.4223973 9.66091429 26.0451475 11.0984308 25.4703684 5.7643225 38.8486671 4.32994924"></polygon>
                </g>
                <path d="M637.115167,306.149838 L641.724937,304.737467" id="Stroke-207" stroke="#3C628F" stroke-width="1.4"></path>
                <polygon id="Fill-219" fill="#FCFCFC" points="194.682077 185.347352 196.226009 179.398213 193.631112 168.376904 183.036506 170.864268 185.647136 181.951586 189.984201 186.449588"></polygon>
                <path d="M194.384084,184.802521 C194.799436,182.795027 196.290925,180.406151 195.87872,178.302264 C195.701461,177.397005 195.504274,176.498034 195.296599,175.60011 C195.261986,175.525719 195.224227,175.453424 195.195908,175.369604 C194.554001,173.431262 193.670855,171.57674 193.467375,169.559816 C193.378221,169.317785 193.361439,169.065277 193.412834,168.831628 C193.276481,168.705898 193.181034,168.549783 193.11076,168.376904 L185.865187,170.080549 L188.475817,181.167867 L192.814979,185.665869 L194.364156,185.303346 C194.347374,185.141992 194.347374,184.978543 194.384084,184.802521" id="Fill-233" fill="#DEDEEB"></path>
                <polygon id="Stroke-241" stroke="#3C628F" stroke-width="1.4" points="194.681028 185.347352 196.226009 179.398213 193.630063 168.376904 183.036506 170.864268 185.646088 181.951586 189.983153 186.449588"></polygon>
                <path d="M580.588477,477.504058 L568.870535,471.207065" id="Fill-267" fill="#FFFFFF"></path>
                <path d="M582.641214,472.95084 L570.920126,466.648608" id="Fill-269" fill="#FFFFFF"></path>
                <path d="M580.434818,477.423276 L568.716876,471.125236" id="Fill-297" fill="#FFFFFF"></path>
                <path d="M582.485458,472.867962 L570.764369,466.566779" id="Fill-299" fill="#FFFFFF"></path>
                <path d="M580.64071,477.531719 L568.921719,471.231582" id="Fill-327" fill="#FFFFFF"></path>
                <path d="M582.689253,472.975357 L570.97131,466.676269" id="Fill-329" fill="#FFFFFF"></path>
                <path d="M389.84264,609.674066 C389.920256,609.682448 389.996823,609.682448 390.064999,609.682448 C391.81451,609.674066 393.562971,609.656254 395.31353,609.651015 L389.84264,609.674066 Z" id="Fill-428" fill="#E6D1B6"></path>
                <path d="M389.84264,609.674066 C389.920256,609.682448 389.996823,609.682448 390.064999,609.682448 C391.81451,609.674066 393.562971,609.656254 395.31353,609.651015 L389.84264,609.674066 Z" id="Fill-430" fill="#E6D1B6"></path>
                <path d="M517.60223,499.391295 C517.614816,499.398629 517.624256,499.407011 517.633696,499.414345" id="Fill-486" fill="#5B371E"></path>
                <path d="M280.026804,627.793772 C280.026804,630.523167 277.811597,632.736021 275.079298,632.736021 C272.345951,632.736021 270.130744,630.523167 270.130744,627.793772 C270.130744,625.065424 272.345951,622.851523 275.079298,622.851523 C277.811597,622.851523 280.026804,625.065424 280.026804,627.793772" id="Fill-572" fill="#FFFFFF"></path>
                <path d="M280.026804,627.793772 C280.026804,630.523167 277.811597,632.736021 275.079298,632.736021 C272.345951,632.736021 270.130744,630.523167 270.130744,627.793772 C270.130744,625.065424 272.345951,622.851523 275.079298,622.851523 C277.811597,622.851523 280.026804,625.065424 280.026804,627.793772 Z" id="Stroke-573" stroke="#FFD667" stroke-width="2.1"></path>
                <path d="M275.788104,615.308376 L275.788104,622.444618" id="Stroke-574" stroke="#FFD667" stroke-width="2.1" stroke-linecap="round" stroke-linejoin="round"></path>
                <path d="M280.502571,627.56599 L287.646404,627.56599" id="Stroke-576" stroke="#FFD667" stroke-width="2.1" stroke-linecap="round" stroke-linejoin="round"></path>
                <path d="M262.587597,627.56599 L269.73143,627.56599" id="Stroke-577" stroke="#FFD667" stroke-width="2.1" stroke-linecap="round" stroke-linejoin="round"></path>
                <path d="M597.279188,171.205584 L597.279188,176.839349" id="Stroke-578" stroke="#93DA74" stroke-width="2.1" stroke-linecap="round" stroke-linejoin="round"></path>
                <path d="M597.279188,189.120558 L597.279188,194.754324" id="Stroke-579" stroke="#93DA74" stroke-width="2.1" stroke-linecap="round" stroke-linejoin="round"></path>
                <path d="M608.576306,183.463198 L602.936548,183.463198" id="Stroke-580" stroke="#93DA74" stroke-width="2.1" stroke-linecap="round" stroke-linejoin="round"></path>
                <path d="M590.660283,183.463198 L585.021574,183.463198" id="Stroke-581" stroke="#93DA74" stroke-width="2.1" stroke-linecap="round" stroke-linejoin="round"></path>
                <path d="M604.993453,174.977157 L601.050761,179.004718" id="Stroke-582" stroke="#93DA74" stroke-width="2.1" stroke-linecap="round" stroke-linejoin="round"></path>
                <path d="M592.737936,187.234772 L588.793147,191.261285" id="Stroke-583" stroke="#93DA74" stroke-width="2.1" stroke-linecap="round" stroke-linejoin="round"></path>
                <path d="M606.023402,191.174321 L601.993655,187.234772" id="Stroke-584" stroke="#93DA74" stroke-width="2.1" stroke-linecap="round" stroke-linejoin="round"></path>
                <path d="M592.823943,178.91985 L588.793147,174.977157" id="Stroke-585" stroke="#93DA74" stroke-width="2.1" stroke-linecap="round" stroke-linejoin="round"></path>
                <path d="M510.814247,309.178103 L510.814247,317.386197" id="Stroke-586" stroke="#FFD667" stroke-width="2.1" stroke-linecap="round" stroke-linejoin="round"></path>
                <path d="M514.92161,313.497044 L506.704786,313.497044" id="Stroke-587" stroke="#FFD667" stroke-width="2.1" stroke-linecap="round" stroke-linejoin="round"></path>
                <path d="M513.473335,313.497044 C513.473335,314.965993 512.282871,316.155192 510.814457,316.155192 C509.344994,316.155192 508.153481,314.965993 508.153481,313.497044 C508.153481,312.03019 509.344994,310.839943 510.814457,310.839943 C512.282871,310.839943 513.473335,312.03019 513.473335,313.497044" id="Fill-588" fill="#FFD667"></path>
                <g id="Group-591" transform="translate(341.755076, 433.329949)">
                    <path d="M0.176771782,0.297855566 L0.176771782,7.30595874" id="Fill-589" fill="#E6007E"></path>
                    <path d="M0.176771782,0.297855566 L0.176771782,7.30595874" id="Stroke-590" stroke="#7FA3FD" stroke-width="1.4" stroke-linecap="round"></path>
                </g>
                <g id="Group-594" transform="translate(337.983503, 436.158629)">
                    <path d="M7.17593623,0.479870675 L0.22323886,0.479870675" id="Fill-592" fill="#E6007E"></path>
                    <path d="M7.17593623,0.479870675 L0.22323886,0.479870675" id="Stroke-593" stroke="#7FA3FD" stroke-width="1.4" stroke-linecap="round"></path>
                </g>
                <path d="M343.640863,437.100892 C343.640863,438.139888 342.796292,438.984304 341.754704,438.984304 C340.713117,438.984304 339.869289,438.139888 339.869289,437.100892 C339.869289,436.060411 340.713117,435.216738 341.754704,435.216738 C342.796292,435.216738 343.640863,436.060411 343.640863,437.100892" id="Fill-595" fill="#7FA3FD"></path>
                <path d="M327.668117,234.732978 C327.668117,237.462374 325.45291,239.675227 322.720612,239.675227 C319.987264,239.675227 317.772057,237.462374 317.772057,234.732978 C317.772057,232.00463 319.987264,229.790729 322.720612,229.790729 C325.45291,229.790729 327.668117,232.00463 327.668117,234.732978" id="Fill-596" fill="#FFFFFF"></path>
                <path d="M327.668117,234.732978 C327.668117,237.462374 325.45291,239.675227 322.720612,239.675227 C319.987264,239.675227 317.772057,237.462374 317.772057,234.732978 C317.772057,232.00463 319.987264,229.790729 322.720612,229.790729 C325.45291,229.790729 327.668117,232.00463 327.668117,234.732978 Z" id="Stroke-597" stroke="#FFD667" stroke-width="2.1"></path>
                <path d="M322.720297,222.655115 L322.720297,229.791358" id="Stroke-598" stroke="#FFD667" stroke-width="2.1" stroke-linecap="round" stroke-linejoin="round"></path>
                <path d="M322.720297,240.031044 L322.720297,247.167287" id="Stroke-599" stroke="#FFD667" stroke-width="2.1" stroke-linecap="round" stroke-linejoin="round"></path>
                <path d="M327.668117,234.917068 L334.81195,234.917068" id="Stroke-600" stroke="#FFD667" stroke-width="2.1" stroke-linecap="round" stroke-linejoin="round"></path>
                <path d="M310.137564,234.732978 L317.281397,234.732978" id="Stroke-601" stroke="#FFD667" stroke-width="2.1" stroke-linecap="round" stroke-linejoin="round"></path>
                <path d="M530.000123,236.460617 L524.36456,236.267831" id="Stroke-602" stroke="#7FA3FD" stroke-width="2.1" stroke-linecap="round" stroke-linejoin="round"></path>
                <path d="M512.164244,235.851768 L506.527633,235.658982" id="Stroke-603" stroke="#7FA3FD" stroke-width="2.1" stroke-linecap="round" stroke-linejoin="round"></path>
                <path d="M517.880779,248.006851 L518.07377,242.376228" id="Stroke-604" stroke="#7FA3FD" stroke-width="2.1" stroke-linecap="round" stroke-linejoin="round"></path>
                <path d="M518.506638,229.72493 L518.699629,224.095356" id="Stroke-605" stroke="#7FA3FD" stroke-width="2.1" stroke-linecap="round" stroke-linejoin="round"></path>
                <path d="M526.388454,244.611923 L522.494011,240.538261" id="Stroke-606" stroke="#7FA3FD" stroke-width="2.1" stroke-linecap="round" stroke-linejoin="round"></path>
                <path d="M514.066364,231.716079 L510.17297,227.640322" id="Stroke-607" stroke="#7FA3FD" stroke-width="2.1" stroke-linecap="round" stroke-linejoin="round"></path>
                <path d="M509.642453,244.398076 L513.721497,240.509867" id="Stroke-608" stroke="#7FA3FD" stroke-width="2.1" stroke-linecap="round" stroke-linejoin="round"></path>
                <path d="M522.886497,231.769305 L526.968687,227.880048" id="Stroke-609" stroke="#7FA3FD" stroke-width="2.1" stroke-linecap="round" stroke-linejoin="round"></path>
                <path d="M364.084732,342.963059 L359.670051,342.812183" id="Stroke-610" stroke="#F88B95" stroke-width="2.1" stroke-linecap="round" stroke-linejoin="round"></path>
                <path d="M349.941331,342.021213 L345.52665,341.869289" id="Stroke-611" stroke="#F88B95" stroke-width="2.1" stroke-linecap="round" stroke-linejoin="round"></path>
                <path d="M354.01269,351.93664 L354.163727,347.52665" id="Stroke-612" stroke="#F88B95" stroke-width="2.1" stroke-linecap="round" stroke-linejoin="round"></path>
                <path d="M354.955584,337.793239 L355.106621,333.383249" id="Stroke-613" stroke="#F88B95" stroke-width="2.1" stroke-linecap="round" stroke-linejoin="round"></path>
                <path d="M360.835418,348.832317 L357.784264,345.640863" id="Stroke-614" stroke="#F88B95" stroke-width="2.1" stroke-linecap="round" stroke-linejoin="round"></path>
                <path d="M351.405435,339.404431 L348.35533,336.211929" id="Stroke-615" stroke="#F88B95" stroke-width="2.1" stroke-linecap="round" stroke-linejoin="round"></path>
                <path d="M347.412437,348.68668 L350.607285,345.640863" id="Stroke-616" stroke="#F88B95" stroke-width="2.1" stroke-linecap="round" stroke-linejoin="round"></path>
                <path d="M357.784264,339.257746 L360.982259,336.211929" id="Stroke-617" stroke="#F88B95" stroke-width="2.1" stroke-linecap="round" stroke-linejoin="round"></path>
                <path d="M194.663706,352.241117 L194.663706,360.44921" id="Stroke-618" stroke="#FFD667" stroke-width="2.1" stroke-linecap="round" stroke-linejoin="round"></path>
                <path d="M199.108956,356.955584 L190.892132,356.955584" id="Stroke-619" stroke="#FFD667" stroke-width="2.1" stroke-linecap="round" stroke-linejoin="round"></path>
                <path d="M197.154879,356.784004 C197.154879,358.252953 195.964415,359.442152 194.496001,359.442152 C193.026538,359.442152 191.835025,358.252953 191.835025,356.784004 C191.835025,355.31715 193.026538,354.126904 194.496001,354.126904 C195.964415,354.126904 197.154879,355.31715 197.154879,356.784004" id="Fill-620" fill="#FFD667"></path>
                <g id="Group-623" transform="translate(273.866751, 193.835025)">
                    <path d="M0.30179673,0.446656919 L0.30179673,8.65579827" id="Fill-621" fill="#E6007E"></path>
                    <path d="M0.30179673,0.446656919 L0.30179673,8.65579827" id="Stroke-622" stroke="#7FA3FD" stroke-width="1.4" stroke-linecap="round"></path>
                </g>
                <g id="Group-623-Copy" transform="translate(408.700508, 484.246193)">
                    <path d="M0.30179673,0.446656919 L0.30179673,8.65579827" id="Fill-621" fill="#E6007E"></path>
                    <path d="M0.30179673,0.446656919 L0.30179673,8.65579827" id="Stroke-622" stroke="#7FA3FD" stroke-width="1.4" stroke-linecap="round"></path>
                </g>
                <g id="Group-626" transform="translate(270.095178, 197.606599)">
                    <path d="M8.2173486,0.577625989 L0.000524433505,0.577625989" id="Fill-624" fill="#E6007E"></path>
                    <path d="M8.2173486,0.577625989 L0.000524433505,0.577625989" id="Stroke-625" stroke="#7FA3FD" stroke-width="1.4" stroke-linecap="round"></path>
                </g>
                <g id="Group-626-Copy" transform="translate(404.928934, 488.017766)">
                    <path d="M8.2173486,0.577625989 L0.000524433505,0.577625989" id="Fill-624" fill="#E6007E"></path>
                    <path d="M8.2173486,0.577625989 L0.000524433505,0.577625989" id="Stroke-625" stroke="#7FA3FD" stroke-width="1.4" stroke-linecap="round"></path>
                </g>
                <path d="M277.301867,198.37896 C277.301867,199.844766 276.110354,201.036061 274.640891,201.036061 C273.171429,201.036061 271.980964,199.844766 271.980964,198.37896 C271.980964,196.911059 273.171429,195.720812 274.640891,195.720812 C276.110354,195.720812 277.301867,196.911059 277.301867,198.37896" id="Fill-627" fill="#7FA3FD"></path>
                <path d="M411.529188,488.487173 C411.529188,489.785917 410.473474,490.841437 409.17149,490.841437 C407.869505,490.841437 406.814721,489.785917 406.814721,488.487173 C406.814721,487.186571 407.869505,486.13198 409.17149,486.13198 C410.473474,486.13198 411.529188,487.186571 411.529188,488.487173" id="Fill-627-Copy" fill="#7FA3FD"></path>
                <path d="M355.16686,418.739788 C350.270748,426.010143 339.116048,430.059707 339.116048,430.059707 C339.116048,430.059707 336.275716,418.547002 339.591185,410.44054 C342.906653,402.32884 349.775683,400.32868 349.775683,400.32868 L357.902305,404.657994 C357.902305,404.657994 360.062971,411.473624 355.16686,418.739788" id="Fill-634" fill="#FFD667"></path>
                <path d="M354.862256,414.827396 C351.188075,420.395153 343.213539,423.759487 343.213539,423.759487 C343.213539,423.759487 341.568916,415.266405 344.154373,409.122384 C346.740879,402.973124 351.63699,401.271574 351.63699,401.271574 L357.221158,404.247191 C357.221158,404.247191 358.533291,409.258591 354.862256,414.827396" id="Fill-635" fill="#FCEDB1"></path>
                <path d="M384.213082,363.944429 C384.31692,363.996817 384.403976,364.064921 384.500472,364.131977 C383.754727,357.022976 381.718877,353.18401 381.718877,353.18401 C381.718877,353.18401 377.361883,353.635592 370.984772,357.015641 C375.377427,359.361559 379.795254,361.64566 384.213082,363.944429" id="Fill-636" fill="#FA8383"></path>
                <path d="M360.311241,406.234683 C360.079441,406.662166 359.544519,406.825616 359.112386,406.596158 L346.938186,400.106378 C346.507102,399.879016 346.343479,399.342567 346.574229,398.911941 C346.802882,398.480267 347.339902,398.317865 347.772035,398.546275 L354.22991,400.923625 L359.946235,405.037102 C360.378368,405.263417 360.540942,405.803009 360.311241,406.234683" id="Fill-637" fill="#CECECE"></path>
                <path d="M360.311241,406.234683 C360.079441,406.662166 359.544519,406.825616 359.112386,406.596158 L346.938186,400.106378 C346.507102,399.879016 346.343479,399.342567 346.574229,398.911941 C346.802882,398.480267 347.339902,398.317865 347.772035,398.546275 L354.22991,400.923625 L359.946235,405.037102 C360.378368,405.263417 360.540942,405.803009 360.311241,406.234683 Z" id="Stroke-638" stroke="#3C628F" stroke-width="1.4"></path>
                <path d="M377.948406,396.110013 C378.585068,395.045497 378.805331,393.884587 379.210193,392.718438 C379.611909,391.546003 380.34297,390.569498 380.839084,389.446307 C381.849143,387.168493 382.144923,384.621406 383.023874,382.279679 C383.180155,381.862674 383.403563,381.544157 383.660536,381.312604 C383.690953,381.217258 383.708784,381.122961 383.752836,381.027615 C384.095816,380.235514 383.915411,379.220242 384.080083,378.38204 C384.251048,377.504023 384.47131,376.637532 384.642275,375.762658 C384.848902,374.721192 385.124754,373.699634 385.395362,372.68017 C385.436268,368.751098 385.043992,365.474776 384.527949,362.882636 C381.566997,362.275987 378.310265,359.331803 375.533914,357.898477 C369.321475,360.444516 359.690778,366.196677 350.261464,379.068318 C342.013174,390.344231 339.955296,395.95285 339.869289,398.744063 C339.981518,398.755588 340.0906,398.775496 340.20178,398.803785 C340.918156,398.999715 341.619848,399.234411 342.313149,399.495302 C342.253364,397.732982 344.1644,396.224218 346.206544,397.036226 C346.601967,397.193389 346.919773,397.464757 347.162062,397.792704 C348.530833,398.887605 350.491166,398.947327 351.964824,399.959456 C353.281152,400.871001 353.934596,402.118874 354.188422,403.531245 C354.74537,402.798866 355.676764,402.383956 356.81898,402.556835 C359.511422,402.954981 362.964292,405.600556 364.070847,408.075348 C364.723242,409.530676 364.420119,410.864465 365.229845,412.330271 C365.324243,412.502102 365.41025,412.67079 365.495208,412.843669 C368.070177,412.04633 370.62207,411.05306 372.712462,409.392373 C376.283854,406.556106 376.401327,402.287562 377.75961,398.2841 C377.48166,397.655448 377.482709,396.90421 377.948406,396.110013 Z" id="Fill-639" fill="#EBEBEB"></path>
                <path d="M367.300182,408.814768 L354.845935,400.903189 L341.339674,394.978148 C341.339674,394.978148 334.516794,394.078128 350.265533,372.560434 C366.017417,351.050074 382.346179,349.412437 382.346179,349.412437 C382.346179,349.412437 390.080524,363.873517 380.961675,388.924234 C371.848069,413.971806 367.300182,408.814768 367.300182,408.814768 Z" id="Stroke-640" stroke="#3C628F" stroke-width="1.4"></path>
                <path d="M376.634323,380.155613 C374.028938,385.02871 367.965437,386.872755 363.085059,384.271185 C358.206779,381.670663 356.361822,375.612558 358.96511,370.740509 C361.565251,365.863221 367.633996,364.020224 372.512276,366.621793 C377.394752,369.22022 379.236562,375.280421 376.634323,380.155613" id="Fill-641" fill="#AAE7ED"></path>
                <path d="M376.634323,380.155613 C374.028938,385.02871 367.965437,386.872755 363.085059,384.271185 C358.206779,381.670663 356.361822,375.612558 358.96511,370.740509 C361.565251,365.863221 367.633996,364.020224 372.512276,366.621793 C377.394752,369.22022 379.236562,375.280421 376.634323,380.155613 Z" id="Stroke-642" stroke="#3C628F" stroke-width="1.4"></path>
                <path d="M368.156091,355.069797 L384.888667,363.990362" id="Stroke-643" stroke="#3C628F" stroke-width="1.4"></path>
                <path d="M343.667772,396.667415 L336.316263,405.880304 L332.998697,404.111697 C332.998697,404.111697 331.546016,399.083533 332.910592,394.704975 C334.276217,390.324321 337.157454,386.753581 337.157454,386.753581 C337.157454,386.753581 340.910301,382.149756 343.498904,381.470812 C343.498904,381.470812 342.967129,388.754788 343.667772,396.667415" id="Fill-644" fill="#F9F9F9"></path>
                <path d="M332.483772,401.273 C332.517336,401.512935 332.505798,402.71366 332.520483,403.887143 C332.771162,403.941626 333.027085,404.020207 333.292449,404.161654 C334.351804,404.738966 335.449968,405.553069 336.580647,405.975314 C335.707989,405.65051 337.37359,404.801831 337.61483,404.55037 C339.286724,402.837295 340.594661,400.843421 342.09559,398.986804 C341.572205,391.655679 342.04,385.242386 342.04,385.242386 C339.454542,385.921329 335.701696,390.525154 335.701696,390.525154 C335.701696,390.525154 333.817931,392.859547 332.37469,396.066718 C332.341126,397.803891 332.242533,399.527444 332.483772,401.273" id="Fill-645" fill="#FA8383"></path>
                <path d="M343.667772,396.663224 L336.317312,405.878208 L332.998697,404.108554 C332.998697,404.108554 331.546016,399.079342 332.910592,394.701832 C334.277266,390.321178 337.157454,386.750437 337.157454,386.750437 C337.157454,386.750437 340.910301,382.14766 343.498904,381.470812 C343.498904,381.470812 342.965031,388.751645 343.667772,396.663224 Z" id="Stroke-646" stroke="#3C628F" stroke-width="1.4"></path>
                <path d="M363.23515,407.707038 L359.670051,418.93685 L362.987617,420.703361 C362.987617,420.703361 367.978126,419.107633 370.859364,415.53794 C373.739553,411.964056 375.104129,407.584451 375.104129,407.584451 C375.104129,407.584451 376.841053,401.908775 375.963151,399.385787 C375.963151,399.385787 370.208018,403.881693 363.23515,407.707038" id="Fill-647" fill="#F9F9F9"></path>
                <path d="M363.92913,420.690452 C368.208508,419.271795 371.115967,416.410383 373.152867,412.478167 C373.490602,411.826465 373.97413,411.439844 374.503807,411.247058 C374.782806,410.226547 376.00998,405.458225 375.128932,403.15736 C375.128932,403.15736 369.906623,407.039284 363.295615,410.563923 C362.613851,412.858501 361.306963,414.981248 360.848608,417.341835 C360.785676,417.688641 360.525557,419.543163 360.64303,419.081104 C360.358787,420.193817 362.508964,420.312213 363.78124,420.745983 C363.831586,420.726075 363.878785,420.70512 363.92913,420.690452" id="Fill-648" fill="#FA8383"></path>
                <path d="M363.23515,407.702847 L359.670051,418.933706 L362.986568,420.704408 C362.986568,420.704408 367.977077,419.108681 370.859364,415.534797 C373.740602,411.963009 375.105178,407.585498 375.105178,407.585498 C375.105178,407.585498 376.842101,401.909823 375.963151,399.385787 C375.963151,399.385787 370.20592,403.880645 363.23515,407.702847 Z" id="Stroke-649" stroke="#3C628F" stroke-width="1.4"></path>
                <path d="M347.412437,411.985774 L350.053484,413.392906 L362.972379,393.528565 C362.972379,393.528565 363.408707,391.576602 362.275931,390.727922 L359.149258,389.061996 C359.149258,389.061996 357.551834,388.753957 356.924611,389.697982 L347.412437,411.985774 Z" id="Fill-650" fill="#FCFCFC"></path>
                <path d="M349.179739,412.830487 C349.312946,412.902782 349.469227,413.006509 349.626557,413.096616 C349.931777,412.613602 350.229655,412.127445 350.535924,411.64967 C351.060358,410.829279 351.606818,410.019367 352.189988,409.235648 C352.156424,408.785114 352.267604,408.301052 352.570726,407.799179 C355.694252,402.593944 359.742879,398.023648 362.696489,392.710494 C362.703831,392.695826 362.714319,392.685348 362.723759,392.668584 C362.701733,392.652868 362.681804,392.631913 362.655583,392.612006 L359.532057,390.947127 C359.532057,390.947127 357.929388,390.641183 357.303214,391.58416 L348.35533,412.549689 C348.624889,412.597886 348.898643,412.678563 349.179739,412.830487" id="Fill-651" fill="#FA8383"></path>
                <path d="M347.412437,411.040785 L350.055581,412.45106 L362.972379,392.588815 C362.972379,392.588815 363.409756,390.629518 362.279078,389.785029 L359.153454,388.119102 C359.153454,388.119102 357.551834,387.811063 356.92566,388.755088 L347.412437,411.040785 Z" id="Stroke-652" stroke="#3C628F" stroke-width="1.4"></path>
                <polyline id="Stroke-653" stroke="#FCFCFC" stroke-width="1.4" stroke-linecap="round" points="366.597703 371.098985 362.498731 372.278754 363.474177 376.144961"></polyline>
                <path d="M365.327411,377.954178 L370.279112,373.927665" id="Stroke-654" stroke="#FCFCFC" stroke-width="1.4" stroke-linecap="round"></path>
                <polyline id="Stroke-655" stroke="#FCFCFC" stroke-width="1.4" stroke-linecap="round" points="372.934653 374.870558 373.914295 378.812204 370.041878 380.045408"></polyline>
                <path d="M539.291244,634.354998 L572.335962,635.827132" id="Stroke-35" stroke="#3C628F" stroke-width="1.4"></path>
                <path d="M359.116287,636.523477 L373.259688,635.580584" id="Stroke-121" stroke="#3C628F" stroke-width="1.4"></path>
            </g>
        </g>
    </g>
</svg>